<svg width="28" height="28" viewBox="0 0 28 28" fill="none" xmlns="http://www.w3.org/2000/svg">
<path d="M20.9998 17.5L20.9998 25.6667M25.0832 21.5833L16.9165 21.5833" stroke="#EE4037" stroke-width="1.5" stroke-linecap="round"/>
<path d="M8.1665 18.6673H12.8332M8.1665 12.834L17.4998 12.834" stroke="#EE4037" stroke-width="1.5" stroke-linecap="round"/>
<path d="M7.58333 4.08398C5.76823 4.13844 4.68605 4.34046 3.93724 5.08997C2.91211 6.11605 2.91211 7.7675 2.91211 11.0704L2.91211 18.6608C2.91211 21.9637 2.91211 23.6152 3.93724 24.6412C4.96236 25.6673 6.61228 25.6673 9.91211 25.6673L13.4167 25.6673M18.0742 4.08398C19.8893 4.13844 20.9715 4.34046 21.7203 5.08997C22.7454 6.11605 22.7454 7.7675 22.7454 11.0704L22.7454 14.0007" stroke="#EE4037" stroke-width="1.5" stroke-linecap="round"/>
<path d="M7.57861 4.37565C7.57861 3.24807 8.4927 2.33398 9.62028 2.33398L16.0369 2.33398C17.1645 2.33398 18.0786 3.24807 18.0786 4.37565C18.0786 5.50323 17.1645 6.41732 16.0369 6.41732L9.62028 6.41732C8.4927 6.41732 7.57861 5.50323 7.57861 4.37565Z" stroke="#EE4037" stroke-width="1.5" stroke-linejoin="round"/>
</svg>
