<svg width="92" height="21" viewBox="0 0 92 21" fill="none" xmlns="http://www.w3.org/2000/svg">
<path d="M21.1514 14.545V5.80493C21.1514 5.51701 21.3855 5.28027 21.6703 5.28027C21.9552 5.28027 22.1925 5.51701 22.1925 5.80493V14.1387H25.5058C25.7652 14.1387 25.9836 14.353 25.9836 14.6217C25.9836 14.8905 25.7652 15.1048 25.5058 15.1048H21.7083C21.3539 15.1048 21.1514 14.9033 21.1514 14.5418V14.545Z" fill="#0F974A"/>
<path d="M9.16406 10.0194C9.16406 6.86506 11.1102 4.94238 14.3001 4.94238C17.4899 4.94238 19.4424 6.86506 19.4424 10.0194C19.4424 13.1737 17.4899 15.1092 14.3001 15.1092C11.1102 15.1092 9.16406 13.1801 9.16406 10.0194ZM14.3001 14.1399C16.838 14.1399 18.3887 12.5627 18.3887 10.0194C18.3887 7.47609 16.8349 5.92452 14.3001 5.92452C11.7653 5.92452 10.2178 7.48249 10.2178 10.0194C10.2178 12.5563 11.7653 14.1399 14.3001 14.1399Z" fill="#0F974A"/>
<path d="M38.8321 10.3835C38.8321 10.1148 39.0441 9.90046 39.31 9.90046H42.6042C43.9238 9.90046 44.6548 9.23824 44.6548 8.06736C44.6548 6.89647 43.9238 6.23425 42.6042 6.23425H38.1771C37.9112 6.23425 37.6992 6.01351 37.6992 5.74479C37.6992 5.47606 37.9112 5.26172 38.1771 5.26172H42.6042C44.5979 5.26172 45.7023 6.26944 45.7023 8.08015C45.7023 9.89086 44.5947 10.873 42.6042 10.873H41.5821L44.5979 14.2929C44.6833 14.3792 44.7276 14.5072 44.7276 14.6256C44.7276 14.9199 44.4871 15.1022 44.2308 15.1022C44.0757 15.1022 43.9143 15.0319 43.8036 14.8943L40.31 10.8698H39.3131C39.0473 10.8698 38.8353 10.6459 38.8353 10.3803L38.8321 10.3835Z" fill="#0F974A"/>
<path d="M1.34125 14.8533C1.08808 14.8021 0.888718 14.6038 0.888718 14.3414C0.888718 14.0023 1.1672 13.804 1.49631 13.8648C2.27795 14.0343 3.05009 14.1207 3.84439 14.1207C5.64817 14.1207 6.53107 13.5512 6.53107 12.3548C6.53107 11.4334 5.67032 10.7456 3.92983 10.2561C1.6577 9.60671 0.572266 8.67257 0.572266 7.39611C0.572266 5.73577 1.79377 4.94238 4.35704 4.94238C5.12602 4.94238 5.83171 5.01276 6.5374 5.15033C6.79689 5.18232 7.00258 5.38066 7.00258 5.63979C7.00258 5.9661 6.76208 6.16125 6.41398 6.11646C5.73994 5.9853 5.06273 5.92132 4.35071 5.92132C2.51845 5.92132 1.62605 6.39159 1.62605 7.4377C1.62605 8.22149 2.44883 8.82293 4.11653 9.2804C6.42664 9.88824 7.53422 10.9152 7.53422 12.342C7.53422 14.2071 6.29689 15.1028 3.69565 15.1028C2.95832 15.1028 2.19567 15.0164 1.34125 14.8469V14.8533Z" fill="#0F974A"/>
<path d="M35.804 15.1089C35.5762 15.1089 35.3958 14.9713 35.3198 14.7762L31.9623 6.35929L28.5984 14.7762C28.5256 14.9649 28.3389 15.1089 28.1142 15.1089C27.8294 15.1089 27.6016 14.8722 27.6016 14.5843C27.6016 14.5203 27.6142 14.4467 27.6332 14.3955L31.1522 5.66828C31.2819 5.32917 31.5161 5.16602 31.8768 5.16602H32.0382C32.399 5.16602 32.6332 5.32917 32.7629 5.66828L36.2819 14.3955C36.3008 14.4467 36.3198 14.5203 36.3198 14.5843C36.3198 14.8722 36.0857 15.1089 35.8008 15.1089H35.804Z" fill="#0F974A"/>
<path d="M88.6959 2.55469H50.4368C49.577 2.55469 48.8799 3.25938 48.8799 4.12866V16.3141C48.8799 17.1834 49.577 17.8881 50.4368 17.8881H88.6959C89.5558 17.8881 90.2529 17.1834 90.2529 16.3141V4.12866C90.2529 3.25938 89.5558 2.55469 88.6959 2.55469Z" fill="#EE4037"/>
<path d="M85.7615 15.1018C86.4419 15.1018 87.0052 14.5324 87.0052 13.8382C87.0052 13.5503 86.9071 13.2687 86.733 13.0608L80.4641 5.61642C80.2173 5.3285 79.8692 5.12695 79.4546 5.12695C78.7552 5.12695 78.1793 5.70919 78.1793 6.4226C78.1793 6.72332 78.2774 7.00484 78.4641 7.22878L80.8723 10.0408L78.4261 12.9968C78.2458 13.2271 78.135 13.5119 78.135 13.835C78.135 14.574 78.7236 15.1114 79.4483 15.1114C79.8628 15.1114 80.2394 14.9163 80.4831 14.6092L82.5653 12.0307L84.79 14.6348C85.0305 14.9099 85.3659 15.105 85.7615 15.105V15.1018ZM83.4641 7.62227C83.4641 8.34208 84.0337 8.91792 84.7394 8.91792C85.1539 8.91792 85.521 8.72917 85.7615 8.41566L86.6539 7.25757C86.8153 7.03683 86.9134 6.7745 86.9134 6.48019C86.9134 5.77318 86.3501 5.20373 85.6507 5.20373C85.2615 5.20373 84.9071 5.38608 84.6792 5.674L83.7489 6.8065C83.5748 7.02084 83.4641 7.31516 83.4641 7.62227ZM76.3122 13.8126C76.3122 13.6494 76.2869 13.4927 76.2331 13.3487L73.6572 6.59215C73.3028 5.64521 72.6794 5.21333 71.6825 5.21333H71.211C70.2142 5.21333 69.5876 5.64521 69.23 6.59215L66.6668 13.3487C66.6161 13.4927 66.5813 13.6494 66.5813 13.8126C66.5813 14.526 67.1636 15.1082 67.8693 15.1082C68.4262 15.1082 68.8977 14.7467 69.0781 14.2509L71.4515 7.77583L73.8123 14.2509C73.9863 14.7563 74.4578 15.1082 75.0211 15.1082C75.7331 15.1082 76.3027 14.526 76.3027 13.8126H76.3122ZM51.5593 7.38874L56.7048 13.0288C57.3536 13.723 58.0624 13.723 58.7111 13.0288L63.8472 7.38874C64.0687 7.1584 64.1889 6.84489 64.1889 6.51218C64.1889 5.78597 63.6067 5.20373 62.8946 5.20373C62.5054 5.20373 62.1636 5.38608 61.9168 5.64841L57.7048 10.3575L53.4928 5.64841C53.246 5.38608 52.9042 5.20373 52.515 5.20373C51.803 5.20373 51.2207 5.78597 51.2207 6.51218C51.2207 6.84489 51.3441 7.1584 51.5561 7.38874H51.5593ZM51.227 13.7646C51.227 14.5036 51.822 15.105 52.5593 15.105C53.2966 15.105 53.8852 14.5036 53.8852 13.7646V11.0677C53.8852 10.3287 53.2903 9.7273 52.5593 9.7273C51.8283 9.7273 51.227 10.3287 51.227 11.0677V13.7646ZM61.5212 13.7646C61.5212 14.5036 62.1162 15.105 62.8472 15.105C63.5782 15.105 64.1731 14.5036 64.1731 13.7646V11.0677C64.1731 10.3287 63.5845 9.7273 62.8472 9.7273C62.1098 9.7273 61.5212 10.3287 61.5212 11.0677V13.7646Z" fill="white"/>
</svg>
