<svg width="256" height="66" viewBox="0 0 256 66" fill="none" xmlns="http://www.w3.org/2000/svg">
<path d="M57.9863 44.9417V20.335C57.9863 19.5244 58.6462 18.8579 59.4487 18.8579C60.2512 18.8579 60.92 19.5244 60.92 20.335V43.7979H70.2559C70.9871 43.7979 71.6023 44.4013 71.6023 45.1579C71.6023 45.9145 70.9871 46.5179 70.2559 46.5179H59.5557C58.557 46.5179 57.9863 45.9505 57.9863 44.9327V44.9417Z" fill="white"/>
<path d="M24.209 32.1972C24.209 23.3164 29.6928 17.9033 38.681 17.9033C47.6692 17.9033 53.1709 23.3164 53.1709 32.1972C53.1709 41.0779 47.6692 46.5271 38.681 46.5271C29.6928 46.5271 24.209 41.0959 24.209 32.1972ZM38.681 43.798C45.8323 43.798 50.2016 39.3576 50.2016 32.1972C50.2016 25.0367 45.8234 20.6684 38.681 20.6684C31.5386 20.6684 27.1783 25.0548 27.1783 32.1972C27.1783 39.3396 31.5386 43.798 38.681 43.798Z" fill="white"/>
<path d="M107.805 33.2242C107.805 32.4676 108.402 31.8641 109.151 31.8641H118.434C122.152 31.8641 124.212 29.9997 124.212 26.7032C124.212 23.4067 122.152 21.5423 118.434 21.5423H105.959C105.21 21.5423 104.613 20.9208 104.613 20.1642C104.613 19.4077 105.21 18.8042 105.959 18.8042H118.434C124.052 18.8042 127.163 21.6414 127.163 26.7392C127.163 31.8371 124.043 34.6022 118.434 34.6022H115.554L124.051 44.2305C124.292 44.4737 124.417 44.834 124.417 45.1672C124.417 45.9959 123.739 46.5093 123.017 46.5093C122.58 46.5093 122.125 46.3111 121.813 45.9238L111.969 34.5932H109.16C108.411 34.5932 107.814 33.9627 107.814 33.2152L107.805 33.2242Z" fill="white"/>
<path d="M2.16679 45.8065C1.45345 45.6624 0.891684 45.104 0.891684 44.3654C0.891684 43.4107 1.67637 42.8523 2.60372 43.0234C4.80618 43.5008 6.98189 43.744 9.22001 43.744C14.3026 43.744 16.7904 42.1407 16.7904 38.7722C16.7904 36.1782 14.365 34.2417 9.46077 32.8637C3.05848 31.0353 0 28.4053 0 24.8116C0 20.137 3.4419 17.9033 10.6645 17.9033C12.8313 17.9033 14.8198 18.1015 16.8082 18.4888C17.5394 18.5788 18.119 19.1373 18.119 19.8668C18.119 20.7855 17.4413 21.3349 16.4605 21.2088C14.5612 20.8396 12.653 20.6594 10.6467 20.6594C5.48386 20.6594 2.96931 21.9834 2.96931 24.9287C2.96931 27.1353 5.28769 28.8286 9.98686 30.1166C16.4962 31.8279 19.6171 34.7191 19.6171 38.7362C19.6171 43.9871 16.1306 46.5091 8.80092 46.5091C6.7233 46.5091 4.57434 46.2659 2.16679 45.7885V45.8065Z" fill="white"/>
<path d="M99.2716 46.5275C98.6296 46.5275 98.1214 46.1402 97.9074 45.5907L88.4466 21.8937L78.968 45.5907C78.7629 46.1222 78.2368 46.5275 77.6037 46.5275C76.8012 46.5275 76.1592 45.8609 76.1592 45.0503C76.1592 44.8702 76.1948 44.663 76.2483 44.5189L86.1639 19.9483C86.5295 18.9935 87.1893 18.5342 88.2058 18.5342H88.6606C89.6771 18.5342 90.337 18.9935 90.7025 19.9483L100.618 44.5189C100.672 44.663 100.725 44.8702 100.725 45.0503C100.725 45.8609 100.065 46.5275 99.2627 46.5275H99.2716Z" fill="white"/>
<path d="M248.307 11.1841H140.503C138.08 11.1841 136.116 13.1681 136.116 15.6154V49.9225C136.116 52.3699 138.08 54.3539 140.503 54.3539H248.307C250.73 54.3539 252.695 52.3699 252.695 49.9225V15.6154C252.695 13.1681 250.73 11.1841 248.307 11.1841Z" fill="#EE4037"/>
<path d="M240.041 46.5091C241.958 46.5091 243.546 44.9059 243.546 42.9514C243.546 42.1408 243.269 41.3482 242.779 40.7628L225.114 19.8038C224.419 18.9932 223.438 18.4258 222.27 18.4258C220.299 18.4258 218.676 20.065 218.676 22.0736C218.676 22.9202 218.953 23.7128 219.479 24.3433L226.265 32.2603L219.372 40.5826C218.864 41.2311 218.552 42.0327 218.552 42.9424C218.552 45.023 220.21 46.5361 222.252 46.5361C223.42 46.5361 224.481 45.9867 225.168 45.1221L231.035 37.8626L237.304 45.1941C237.981 45.9687 238.927 46.5181 240.041 46.5181V46.5091ZM233.568 25.4511C233.568 27.4777 235.173 29.0989 237.161 29.0989C238.329 29.0989 239.364 28.5675 240.041 27.6848L242.556 24.4243C243.01 23.8029 243.287 23.0643 243.287 22.2357C243.287 20.2452 241.7 18.6419 239.729 18.6419C238.632 18.6419 237.634 19.1553 236.992 19.966L234.37 23.1544C233.88 23.7578 233.568 24.5865 233.568 25.4511ZM213.415 42.8794C213.415 42.42 213.344 41.9787 213.193 41.5734L205.934 22.5509C204.936 19.8849 203.179 18.669 200.37 18.669H199.042C196.233 18.669 194.467 19.8849 193.46 22.5509L186.237 41.5734C186.094 41.9787 185.996 42.42 185.996 42.8794C185.996 44.8879 187.637 46.5271 189.625 46.5271C191.195 46.5271 192.523 45.5094 193.032 44.1133L199.719 25.8834L206.371 44.1133C206.862 45.5364 208.19 46.5271 209.777 46.5271C211.784 46.5271 213.389 44.8879 213.389 42.8794H213.415ZM143.668 24.7936L158.167 40.6727C159.995 42.6272 161.992 42.6272 163.82 40.6727L178.292 24.7936C178.916 24.1451 179.255 23.2625 179.255 22.3257C179.255 20.2812 177.614 18.6419 175.608 18.6419C174.511 18.6419 173.548 19.1553 172.853 19.8939L160.984 33.152L149.116 19.8939C148.421 19.1553 147.458 18.6419 146.361 18.6419C144.355 18.6419 142.714 20.2812 142.714 22.3257C142.714 23.2625 143.062 24.1451 143.659 24.7936H143.668ZM142.732 42.7443C142.732 44.8248 144.408 46.5181 146.486 46.5181C148.563 46.5181 150.222 44.8248 150.222 42.7443V35.1515C150.222 33.0709 148.545 31.3776 146.486 31.3776C144.426 31.3776 142.732 33.0709 142.732 35.1515V42.7443ZM171.738 42.7443C171.738 44.8248 173.415 46.5181 175.474 46.5181C177.534 46.5181 179.21 44.8248 179.21 42.7443V35.1515C179.21 33.0709 177.552 31.3776 175.474 31.3776C173.397 31.3776 171.738 33.0709 171.738 35.1515V42.7443Z" fill="white"/>
</svg>
