<svg width="398" height="310" viewBox="0 0 398 310" fill="none" xmlns="http://www.w3.org/2000/svg">
<path d="M397.648 309.929H97.069C96.9755 309.929 96.8858 309.892 96.8196 309.825C96.7535 309.759 96.7163 309.669 96.7163 309.575C96.7163 309.481 96.7535 309.391 96.8196 309.324C96.8858 309.258 96.9755 309.22 97.069 309.22H397.648C397.741 309.22 397.831 309.258 397.897 309.324C397.963 309.391 398 309.481 398 309.575C398 309.669 397.963 309.759 397.897 309.825C397.831 309.892 397.741 309.929 397.648 309.929Z" fill="#292929"/>
<path d="M72.1255 310H0.352703C0.259161 310 0.169454 309.963 0.10331 309.896C0.0371648 309.83 0 309.74 0 309.646C0 309.551 0.0371648 309.461 0.10331 309.395C0.169454 309.328 0.259161 309.291 0.352703 309.291H72.1255C72.219 309.291 72.3087 309.328 72.3749 309.395C72.441 309.461 72.4782 309.551 72.4782 309.646C72.4782 309.74 72.441 309.83 72.3749 309.896C72.3087 309.963 72.219 310 72.1255 310Z" fill="#292929"/>
<path d="M266.051 17.814H131.629C124.345 17.814 118.44 23.7487 118.44 31.0695V296.319C118.44 303.64 124.345 309.574 131.629 309.574H266.051C273.335 309.574 279.24 303.64 279.24 296.319V31.0695C279.24 23.7487 273.335 17.814 266.051 17.814Z" fill="white"/>
<path d="M266.051 309.929H131.629C128.039 309.926 124.597 308.491 122.059 305.94C119.52 303.389 118.092 299.93 118.087 296.322V31.07C118.092 27.4617 119.52 24.0025 122.058 21.4511C124.597 18.8996 128.039 17.4643 131.629 17.46H266.051C269.641 17.4643 273.083 18.8996 275.622 21.4511C278.16 24.0025 279.588 27.4617 279.593 31.07V296.322C279.588 299.93 278.16 303.389 275.621 305.94C273.083 308.491 269.641 309.926 266.051 309.929ZM131.629 18.1689C128.226 18.1727 124.963 19.5331 122.557 21.9517C120.15 24.3703 118.797 27.6495 118.793 31.07V296.322C118.797 299.742 120.15 303.021 122.557 305.439C124.963 307.857 128.226 309.217 131.629 309.22H266.051C269.454 309.217 272.717 307.857 275.123 305.439C277.53 303.021 278.883 299.742 278.887 296.322V31.07C278.883 27.6495 277.53 24.3703 275.123 21.9517C272.717 19.5331 269.454 18.1727 266.051 18.1689H131.629Z" fill="#292929"/>
<path d="M261.139 301.651H136.541C133.961 301.645 131.488 300.612 129.665 298.777C127.841 296.942 126.816 294.456 126.813 291.862V35.5246C126.817 32.9309 127.844 30.4445 129.669 28.6105C131.494 26.7765 133.967 25.7445 136.548 25.7407H261.146C263.727 25.7438 266.201 26.7757 268.026 28.6098C269.851 30.444 270.878 32.9307 270.881 35.5246V291.862C270.879 294.458 269.852 296.947 268.026 298.783C266.199 300.618 263.722 301.65 261.139 301.651ZM136.541 26.4497C134.147 26.4528 131.852 27.4099 130.16 29.1111C128.467 30.8123 127.515 33.1188 127.512 35.5246V291.862C127.514 294.269 128.466 296.576 130.159 298.277C131.852 299.979 134.147 300.936 136.541 300.94H261.139C263.534 300.936 265.829 299.979 267.521 298.277C269.214 296.576 270.166 294.269 270.169 291.862V35.5246C270.165 33.1188 269.213 30.8123 267.521 29.1111C265.828 27.4099 263.533 26.4528 261.139 26.4497H136.541Z" fill="#292929"/>
<path d="M216.88 35.5835H180.796V36.2925H216.88V35.5835Z" fill="#292929"/>
<path d="M260.655 223.174H137.025V243.264H260.655V223.174Z" fill="#EE4037"/>
<path d="M183.364 229.548H184.347V236.101H187.714V236.891H183.364V229.548Z" fill="white"/>
<path d="M188.797 233.194C188.797 230.831 190.159 229.413 192.089 229.413C194.02 229.413 195.381 230.831 195.381 233.194C195.381 235.558 194.02 237.025 192.089 237.025C190.159 237.025 188.797 235.546 188.797 233.194ZM194.382 233.194C194.382 231.365 193.477 230.235 192.096 230.235C190.716 230.235 189.811 231.365 189.811 233.194C189.811 235.023 190.718 236.205 192.096 236.205C193.474 236.205 194.382 235.023 194.382 233.194Z" fill="white"/>
<path d="M197.079 233.227C197.079 230.864 198.574 229.415 200.622 229.415C201.035 229.408 201.445 229.485 201.827 229.64C202.21 229.796 202.557 230.027 202.849 230.321L202.31 230.928C202.096 230.703 201.837 230.526 201.551 230.407C201.265 230.288 200.958 230.229 200.648 230.236C199.091 230.236 198.092 231.372 198.092 233.201C198.092 235.031 199.011 236.205 200.657 236.205C201.157 236.227 201.649 236.074 202.049 235.773V233.861H200.403V233.088H202.936V236.16C202.282 236.742 201.429 237.048 200.556 237.013C198.529 237.035 197.079 235.617 197.079 233.227Z" fill="white"/>
<path d="M205.255 229.548H206.238V236.891H205.255V229.548Z" fill="white"/>
<path d="M208.819 229.548H209.835L212.628 234.166L213.46 235.685H213.507C213.458 234.946 213.383 234.116 213.383 233.35V229.548H214.323V236.891H213.31L210.514 232.27L209.682 230.756H209.635C209.684 231.498 209.759 232.282 209.759 233.048V236.891H208.819V229.548Z" fill="white"/>
<path d="M240.419 98.0753C240.419 106.341 237.98 114.42 233.411 121.292C228.843 128.165 222.349 133.521 214.751 136.684C207.154 139.847 198.794 140.674 190.728 139.062C182.663 137.449 175.254 133.469 169.439 127.625C163.624 121.781 159.664 114.334 158.06 106.228C156.455 98.1217 157.279 89.7192 160.426 82.0832C163.573 74.4472 168.902 67.9206 175.74 63.3287C182.577 58.7368 190.616 56.2859 198.84 56.2859C204.305 56.2675 209.72 57.3358 214.773 59.4294C219.826 61.523 224.417 64.6005 228.281 68.4847C232.146 72.3688 235.208 76.983 237.291 82.0614C239.374 87.1399 240.437 92.5823 240.419 98.0753Z" fill="#EE4037"/>
<path d="M211.649 106.276C218.724 99.165 218.724 87.6358 211.649 80.5248C204.573 73.4137 193.102 73.4137 186.027 80.5248C178.952 87.6358 178.952 99.165 186.027 106.276C193.102 113.387 204.573 113.387 211.649 106.276Z" fill="white"/>
<path d="M229.713 126.061C225.814 130.404 221.05 133.877 215.731 136.254C210.412 138.631 204.656 139.859 198.835 139.859C193.014 139.859 187.258 138.631 181.939 136.254C176.62 133.877 171.856 130.404 167.957 126.061C170.658 121.594 174.415 117.867 178.894 115.211C183.373 112.555 188.435 111.053 193.631 110.837C194.05 110.82 194.471 110.811 194.892 110.811H202.769C203.19 110.811 203.611 110.811 204.029 110.837C209.229 111.042 214.297 112.54 218.779 115.197C223.261 117.854 227.018 121.587 229.713 126.061Z" fill="white"/>
<path d="M149.344 210.731H150.428C151.133 210.731 151.641 210.968 151.641 211.658C151.641 212.348 151.133 212.634 150.428 212.634H149.783V214.026H149.344V210.731ZM150.364 212.294C150.903 212.294 151.199 212.086 151.199 211.658C151.199 211.23 150.903 211.072 150.364 211.072H149.783V212.294H150.364ZM150.341 212.53L150.686 212.312L151.742 214.038H151.244L150.341 212.53Z" fill="#292929"/>
<path d="M152.274 212.809C152.263 212.648 152.284 212.486 152.336 212.334C152.389 212.181 152.471 212.041 152.579 211.921C152.686 211.801 152.817 211.704 152.962 211.636C153.108 211.568 153.266 211.531 153.426 211.525C154.08 211.525 154.451 211.972 154.451 212.669C154.451 212.748 154.444 212.828 154.43 212.906H152.702C152.7 213.018 152.72 213.131 152.762 213.235C152.804 213.34 152.867 213.435 152.947 213.515C153.027 213.594 153.122 213.657 153.227 213.698C153.331 213.74 153.443 213.76 153.555 213.756C153.782 213.755 154.003 213.687 154.193 213.563L154.348 213.832C154.096 213.997 153.802 214.085 153.501 214.085C153.335 214.09 153.169 214.061 153.015 213.998C152.861 213.936 152.721 213.841 152.605 213.721C152.49 213.601 152.401 213.457 152.343 213.3C152.286 213.143 152.263 212.976 152.274 212.809ZM154.066 212.608C154.066 212.121 153.83 211.854 153.433 211.854C153.238 211.862 153.054 211.944 152.917 212.084C152.781 212.224 152.703 212.412 152.699 212.608H154.066Z" fill="#292929"/>
<path d="M155.293 211.585H155.65L155.688 211.939H155.702C155.801 211.82 155.922 211.722 156.059 211.651C156.196 211.58 156.346 211.537 156.499 211.526C156.653 211.512 156.807 211.551 156.935 211.637C157.063 211.723 157.159 211.85 157.205 211.998C157.306 211.866 157.433 211.756 157.579 211.675C157.724 211.594 157.884 211.543 158.049 211.526C158.578 211.526 158.829 211.857 158.829 212.471V214.017H158.397V212.523C158.397 212.069 158.246 211.876 157.926 211.876C157.799 211.89 157.677 211.931 157.566 211.996C157.455 212.06 157.359 212.146 157.282 212.249V214.017H156.85V212.523C156.85 212.069 156.697 211.876 156.379 211.876C156.253 211.892 156.131 211.933 156.02 211.997C155.909 212.061 155.812 212.147 155.735 212.249V214.017H155.302L155.293 211.585Z" fill="#292929"/>
<path d="M159.687 212.809C159.676 212.648 159.698 212.486 159.75 212.334C159.802 212.181 159.885 212.041 159.992 211.921C160.1 211.801 160.23 211.704 160.376 211.636C160.521 211.568 160.679 211.531 160.84 211.525C161.496 211.525 161.865 211.972 161.865 212.669C161.865 212.748 161.858 212.828 161.844 212.906H160.115C160.113 213.018 160.134 213.13 160.177 213.235C160.219 213.34 160.282 213.435 160.362 213.514C160.441 213.593 160.536 213.656 160.641 213.698C160.745 213.739 160.857 213.759 160.969 213.756C161.195 213.755 161.417 213.687 161.606 213.563L161.764 213.832C161.511 213.997 161.216 214.085 160.915 214.085C160.749 214.09 160.583 214.061 160.429 213.998C160.274 213.936 160.135 213.841 160.019 213.721C159.903 213.601 159.814 213.457 159.757 213.3C159.7 213.143 159.676 212.976 159.687 212.809ZM161.482 212.608C161.482 212.121 161.246 211.854 160.849 211.854C160.654 211.861 160.469 211.943 160.332 212.083C160.195 212.224 160.117 212.411 160.113 212.608H161.482Z" fill="#292929"/>
<path d="M162.707 211.585H163.064L163.102 211.939H163.116C163.215 211.82 163.337 211.722 163.474 211.651C163.612 211.58 163.762 211.538 163.916 211.525C164.069 211.511 164.223 211.55 164.352 211.636C164.48 211.722 164.575 211.85 164.621 211.998C164.723 211.866 164.851 211.756 164.996 211.675C165.142 211.593 165.302 211.543 165.468 211.525C165.994 211.525 166.248 211.856 166.248 212.471V214.016H165.813V212.523C165.813 212.069 165.663 211.875 165.343 211.875C165.216 211.89 165.094 211.931 164.984 211.996C164.873 212.06 164.777 212.146 164.701 212.249V214.016H164.266V212.523C164.266 212.069 164.115 211.875 163.796 211.875C163.669 211.891 163.548 211.933 163.437 211.997C163.327 212.061 163.231 212.147 163.154 212.249V214.016H162.719L162.707 211.585Z" fill="#292929"/>
<path d="M167.694 213.773H167.68L167.64 214.026H167.292V210.45H167.727V211.429L167.713 211.866C167.935 211.664 168.218 211.545 168.517 211.525C169.18 211.525 169.538 212.015 169.538 212.766C169.538 213.6 169.013 214.085 168.425 214.085C168.153 214.069 167.894 213.959 167.694 213.773ZM169.088 212.771C169.088 212.234 168.896 211.873 168.411 211.873C168.15 211.895 167.906 212.014 167.727 212.206V213.485C167.901 213.638 168.122 213.727 168.352 213.737C168.776 213.737 169.088 213.374 169.088 212.771Z" fill="#292929"/>
<path d="M170.231 212.809C170.22 212.648 170.242 212.486 170.294 212.333C170.347 212.181 170.429 212.041 170.537 211.921C170.645 211.801 170.775 211.704 170.921 211.636C171.067 211.568 171.225 211.531 171.385 211.525C172.039 211.525 172.408 211.972 172.408 212.669C172.409 212.749 172.402 212.828 172.387 212.906H170.661C170.658 213.018 170.679 213.131 170.721 213.235C170.763 213.34 170.825 213.435 170.905 213.515C170.985 213.594 171.079 213.657 171.184 213.698C171.288 213.74 171.4 213.76 171.512 213.756C171.74 213.755 171.962 213.688 172.152 213.563L172.307 213.832C172.054 213.997 171.759 214.085 171.458 214.085C171.292 214.09 171.126 214.061 170.972 213.998C170.818 213.936 170.678 213.841 170.562 213.721C170.447 213.601 170.357 213.457 170.3 213.3C170.243 213.143 170.219 212.976 170.231 212.809ZM172.025 212.608C172.025 212.121 171.79 211.854 171.392 211.854C171.197 211.861 171.012 211.943 170.875 212.083C170.738 212.224 170.66 212.411 170.656 212.608H172.025Z" fill="#292929"/>
<path d="M173.25 211.585H173.605L173.641 212.029H173.655C173.722 211.888 173.825 211.767 173.953 211.678C174.081 211.59 174.231 211.537 174.386 211.525C174.479 211.522 174.573 211.539 174.659 211.575L174.576 211.937C174.497 211.91 174.414 211.896 174.33 211.896C174.111 211.896 173.859 212.045 173.681 212.459V214.026H173.246L173.25 211.585Z" fill="#292929"/>
<path d="M176.559 211.585H176.918L176.954 211.939H176.968C177.067 211.82 177.189 211.722 177.326 211.651C177.463 211.58 177.613 211.538 177.767 211.525C177.921 211.511 178.075 211.55 178.203 211.636C178.332 211.722 178.427 211.85 178.473 211.998C178.575 211.866 178.702 211.756 178.848 211.675C178.993 211.594 179.154 211.543 179.319 211.525C179.846 211.525 180.1 211.856 180.1 212.471V214.016H179.665V212.523C179.665 212.069 179.514 211.875 179.194 211.875C179.068 211.89 178.946 211.931 178.835 211.996C178.725 212.06 178.629 212.146 178.553 212.249V214.016H178.118V212.523C178.118 212.069 177.967 211.875 177.647 211.875C177.521 211.892 177.399 211.933 177.289 211.998C177.179 212.062 177.083 212.147 177.005 212.249V214.016H176.57L176.559 211.585Z" fill="#292929"/>
<path d="M180.953 212.809C180.943 212.648 180.964 212.486 181.017 212.333C181.069 212.181 181.152 212.041 181.26 211.921C181.368 211.801 181.498 211.704 181.644 211.636C181.79 211.568 181.947 211.531 182.108 211.525C182.762 211.525 183.131 211.972 183.131 212.669C183.131 212.748 183.125 212.827 183.112 212.906H181.384C181.381 213.018 181.401 213.131 181.443 213.235C181.485 213.34 181.548 213.435 181.628 213.515C181.707 213.594 181.802 213.657 181.907 213.698C182.011 213.74 182.123 213.76 182.235 213.756C182.462 213.755 182.684 213.688 182.874 213.563L183.03 213.832C182.778 213.997 182.484 214.085 182.183 214.085C182.017 214.091 181.851 214.062 181.696 213.999C181.542 213.936 181.402 213.842 181.286 213.722C181.17 213.601 181.08 213.458 181.023 213.301C180.966 213.143 180.942 212.976 180.953 212.809ZM182.748 212.608C182.748 212.121 182.512 211.854 182.115 211.854C181.92 211.862 181.735 211.944 181.598 212.084C181.461 212.224 181.383 212.412 181.379 212.608H182.748Z" fill="#292929"/>
<path d="M216.386 210.731H218.382V211.086H216.825V212.197H218.147V212.551H216.825V214.026H216.386V210.731Z" fill="#292929"/>
<path d="M218.899 212.809C218.915 212.575 218.998 212.351 219.138 212.164C219.279 211.978 219.471 211.836 219.69 211.758C219.91 211.68 220.148 211.668 220.374 211.724C220.6 211.78 220.805 211.901 220.964 212.073C221.122 212.245 221.227 212.46 221.265 212.691C221.303 212.922 221.273 213.159 221.179 213.373C221.084 213.587 220.929 213.769 220.733 213.895C220.537 214.022 220.308 214.088 220.075 214.085C219.913 214.084 219.753 214.049 219.604 213.984C219.456 213.918 219.323 213.822 219.213 213.703C219.102 213.583 219.018 213.442 218.964 213.288C218.91 213.135 218.888 212.972 218.899 212.809ZM220.827 212.809C220.827 212.249 220.529 211.864 220.087 211.864C219.645 211.864 219.346 212.244 219.346 212.809C219.346 213.374 219.647 213.754 220.087 213.754C220.526 213.754 220.827 213.369 220.827 212.809Z" fill="#292929"/>
<path d="M222.161 211.585H222.514L222.551 212.029H222.565C222.632 211.888 222.735 211.767 222.863 211.679C222.991 211.59 223.139 211.537 223.294 211.525C223.389 211.521 223.482 211.538 223.569 211.575L223.487 211.937C223.407 211.909 223.323 211.896 223.238 211.897C223.022 211.897 222.768 212.045 222.589 212.459V214.026H222.156L222.161 211.585Z" fill="#292929"/>
<path d="M223.955 214.494C223.966 214.377 224.006 214.265 224.072 214.169C224.138 214.073 224.227 213.995 224.331 213.943V213.922C224.26 213.883 224.2 213.825 224.158 213.755C224.117 213.685 224.095 213.604 224.096 213.522C224.103 213.429 224.133 213.34 224.182 213.261C224.231 213.182 224.298 213.116 224.378 213.069V213.05C224.276 212.974 224.193 212.875 224.135 212.761C224.078 212.648 224.046 212.523 224.044 212.395C224.044 211.861 224.486 211.525 225.008 211.525C225.132 211.525 225.254 211.545 225.371 211.584H226.264V211.904H225.737C225.805 211.968 225.858 212.046 225.894 212.132C225.93 212.218 225.948 212.311 225.947 212.405C225.947 212.929 225.533 213.251 225.006 213.251C224.874 213.25 224.743 213.222 224.623 213.168C224.575 213.199 224.535 213.242 224.507 213.292C224.478 213.342 224.463 213.399 224.461 213.456C224.461 213.612 224.566 213.721 224.91 213.721H225.408C226.005 213.721 226.304 213.9 226.304 214.305C226.304 214.758 225.801 215.148 225.008 215.148C224.395 215.148 223.955 214.914 223.955 214.494ZM225.888 214.366C225.888 214.141 225.709 214.064 225.373 214.064H224.929C224.817 214.064 224.706 214.052 224.597 214.028C224.522 214.068 224.459 214.127 224.413 214.198C224.367 214.27 224.34 214.352 224.334 214.437C224.334 214.699 224.611 214.865 225.079 214.865C225.547 214.865 225.888 214.621 225.888 214.366ZM225.561 212.395C225.561 212.25 225.504 212.11 225.401 212.007C225.299 211.905 225.16 211.847 225.016 211.847C224.871 211.847 224.732 211.905 224.63 212.007C224.527 212.11 224.47 212.25 224.47 212.395C224.47 212.54 224.527 212.68 224.63 212.783C224.732 212.886 224.871 212.943 225.016 212.943C225.16 212.943 225.299 212.886 225.401 212.783C225.504 212.68 225.561 212.54 225.561 212.395Z" fill="#292929"/>
<path d="M226.746 212.809C226.761 212.576 226.844 212.352 226.984 212.166C227.124 211.979 227.315 211.838 227.534 211.759C227.752 211.68 227.989 211.668 228.215 211.722C228.441 211.777 228.646 211.897 228.805 212.068C228.964 212.238 229.07 212.452 229.11 212.682C229.15 212.912 229.122 213.149 229.029 213.363C228.937 213.578 228.784 213.76 228.59 213.889C228.396 214.017 228.168 214.085 227.936 214.085C227.772 214.086 227.611 214.052 227.461 213.987C227.311 213.922 227.176 213.827 227.065 213.707C226.953 213.587 226.867 213.446 226.812 213.291C226.758 213.137 226.735 212.973 226.746 212.809ZM228.676 212.809C228.676 212.249 228.378 211.864 227.936 211.864C227.494 211.864 227.195 212.244 227.195 212.809C227.195 213.374 227.494 213.754 227.936 213.754C228.378 213.754 228.686 213.369 228.686 212.809H228.676Z" fill="#292929"/>
<path d="M230.005 213.272V211.923H229.622V211.608L230.024 211.585L230.075 210.902H230.437V211.585H231.143V211.923H230.437V213.279C230.437 213.577 230.539 213.752 230.835 213.752C230.935 213.747 231.034 213.724 231.126 213.686L231.211 213.998C231.06 214.051 230.901 214.082 230.741 214.088C230.188 214.085 230.005 213.757 230.005 213.272Z" fill="#292929"/>
<path d="M233.189 211.584H233.549L233.586 211.868H233.6C233.827 211.667 234.114 211.546 234.416 211.525C235.079 211.525 235.434 212.015 235.434 212.768C235.434 213.6 234.91 214.085 234.324 214.085C234.065 214.07 233.818 213.971 233.619 213.804V214.229V215.056H233.184L233.189 211.584ZM234.985 212.766C234.985 212.23 234.792 211.868 234.31 211.868C234.049 211.891 233.804 212.01 233.624 212.201V213.48C233.799 213.631 234.019 213.72 234.249 213.733C234.672 213.737 234.976 213.373 234.976 212.771L234.985 212.766Z" fill="#292929"/>
<path d="M236.097 213.402C236.097 212.87 236.568 212.603 237.673 212.492C237.673 212.178 237.562 211.875 237.144 211.875C236.869 211.889 236.604 211.979 236.377 212.135L236.208 211.854C236.508 211.656 236.857 211.546 237.217 211.535C237.842 211.535 238.108 211.93 238.108 212.537V214.036H237.748L237.71 213.742H237.696C237.461 213.953 237.162 214.077 236.847 214.095C236.752 214.105 236.655 214.094 236.563 214.064C236.472 214.033 236.388 213.984 236.317 213.918C236.246 213.853 236.19 213.773 236.152 213.684C236.114 213.595 236.095 213.499 236.097 213.402ZM237.673 213.44V212.762C236.812 212.861 236.523 213.062 236.523 213.371C236.523 213.681 236.72 213.764 236.972 213.764C237.238 213.743 237.488 213.624 237.673 213.43V213.44Z" fill="#292929"/>
<path d="M238.841 213.747L239.055 213.476C239.268 213.657 239.536 213.759 239.815 213.764C240.151 213.764 240.318 213.594 240.318 213.386C240.318 213.135 240.015 213.024 239.73 212.913C239.373 212.788 238.966 212.62 238.966 212.204C238.966 211.788 239.295 211.512 239.85 211.512C240.139 211.514 240.419 211.61 240.65 211.786L240.44 212.051C240.274 211.916 240.068 211.84 239.855 211.833C239.533 211.833 239.384 211.996 239.384 212.183C239.384 212.419 239.662 212.504 239.954 212.606C240.323 212.738 240.737 212.882 240.737 213.346C240.737 213.743 240.405 214.071 239.796 214.071C239.451 214.07 239.116 213.956 238.841 213.747Z" fill="#292929"/>
<path d="M241.263 213.747L241.48 213.476C241.691 213.658 241.958 213.76 242.237 213.764C242.573 213.764 242.74 213.594 242.74 213.386C242.74 213.135 242.437 213.024 242.152 212.913C241.795 212.788 241.388 212.62 241.388 212.204C241.388 211.788 241.717 211.512 242.272 211.512C242.561 211.514 242.841 211.61 243.071 211.786L242.862 212.051C242.696 211.917 242.492 211.841 242.279 211.833C241.954 211.833 241.809 211.996 241.809 212.183C241.809 212.419 242.086 212.504 242.378 212.606C242.747 212.738 243.161 212.882 243.161 213.346C243.161 213.743 242.829 214.071 242.22 214.071C241.875 214.07 241.539 213.956 241.263 213.747Z" fill="#292929"/>
<path d="M243.676 211.584H244.12L244.501 213.002C244.558 213.239 244.605 213.454 244.654 213.683H244.675C244.729 213.447 244.786 213.229 244.849 213.002L245.244 211.584H245.667L246.069 213.002C246.133 213.239 246.187 213.454 246.248 213.683H246.267C246.323 213.447 246.373 213.234 246.427 213.002L246.801 211.584H247.203L246.514 214.026H245.987L245.616 212.714C245.555 212.478 245.505 212.258 245.442 212.005H245.42C245.366 212.241 245.315 212.478 245.244 212.714L244.887 214.019H244.381L243.676 211.584Z" fill="#292929"/>
<path d="M247.76 212.809C247.775 212.576 247.858 212.352 247.998 212.166C248.138 211.979 248.329 211.838 248.548 211.759C248.767 211.68 249.005 211.668 249.231 211.723C249.457 211.778 249.662 211.898 249.821 212.069C249.979 212.239 250.085 212.453 250.125 212.684C250.164 212.914 250.136 213.151 250.043 213.365C249.95 213.579 249.797 213.762 249.602 213.89C249.408 214.018 249.18 214.086 248.948 214.085C248.785 214.086 248.623 214.052 248.473 213.987C248.324 213.922 248.189 213.827 248.077 213.707C247.966 213.587 247.88 213.446 247.826 213.291C247.771 213.137 247.749 212.973 247.76 212.809ZM249.688 212.809C249.688 212.249 249.39 211.864 248.948 211.864C248.506 211.864 248.209 212.244 248.209 212.809C248.209 213.374 248.508 213.754 248.948 213.754C249.387 213.754 249.688 213.369 249.688 212.809Z" fill="#292929"/>
<path d="M251.021 211.585H251.381L251.416 212.029H251.43C251.497 211.888 251.599 211.767 251.727 211.679C251.855 211.59 252.004 211.537 252.159 211.525C252.253 211.521 252.347 211.538 252.434 211.575L252.354 211.937C252.274 211.91 252.19 211.896 252.105 211.897C251.886 211.897 251.635 212.045 251.456 212.459V214.026H251.021V211.585Z" fill="#292929"/>
<path d="M252.827 212.809C252.827 212.017 253.354 211.526 253.937 211.526C254.203 211.528 254.459 211.628 254.656 211.807L254.638 211.389V210.443H255.073V214.019H254.727L254.689 213.731H254.675C254.468 213.94 254.191 214.064 253.897 214.078C253.243 214.085 252.827 213.622 252.827 212.809ZM254.638 213.405V212.126C254.467 211.967 254.245 211.877 254.012 211.873C253.603 211.873 253.276 212.249 253.276 212.804C253.276 213.36 253.53 213.75 253.982 213.75C254.109 213.742 254.234 213.707 254.347 213.647C254.46 213.587 254.559 213.504 254.638 213.402V213.405Z" fill="#292929"/>
<path d="M257.285 211.431C257.287 211.364 257.275 211.298 257.25 211.237C257.224 211.175 257.186 211.12 257.138 211.074C257.09 211.028 257.033 210.993 256.97 210.971C256.907 210.949 256.841 210.941 256.775 210.947C256.659 210.949 256.546 210.976 256.441 211.025C256.337 211.074 256.244 211.145 256.168 211.233L255.919 211.017C256.033 210.889 256.172 210.785 256.328 210.713C256.484 210.642 256.653 210.604 256.824 210.602C257.358 210.602 257.708 210.911 257.708 211.403C257.708 212.062 256.86 212.329 256.944 213.029H256.561C256.448 212.249 257.285 211.963 257.285 211.431ZM256.45 213.773C256.449 213.71 256.467 213.648 256.501 213.596C256.535 213.543 256.584 213.502 256.642 213.477C256.7 213.452 256.763 213.445 256.825 213.457C256.886 213.469 256.943 213.499 256.987 213.544C257.032 213.588 257.062 213.645 257.074 213.706C257.087 213.768 257.08 213.832 257.056 213.89C257.032 213.948 256.991 213.998 256.939 214.032C256.887 214.067 256.826 214.085 256.763 214.085C256.722 214.086 256.681 214.079 256.643 214.063C256.605 214.048 256.57 214.025 256.541 213.996C256.511 213.967 256.488 213.932 256.473 213.894C256.457 213.855 256.45 213.814 256.45 213.773Z" fill="#292929"/>
<path d="M257.501 154.051H140.026C137.817 154.051 136.026 155.842 136.026 158.051V170.451C136.026 172.66 137.817 174.451 140.026 174.451H257.501C259.71 174.451 261.501 172.66 261.501 170.451V158.051C261.501 155.842 259.71 154.051 257.501 154.051Z" fill="#FEE3E2"/>
<path d="M257.654 180.513H140.179C137.97 180.513 136.179 182.304 136.179 184.513V196.912C136.179 199.121 137.97 200.912 140.179 200.912H257.654C259.863 200.912 261.654 199.121 261.654 196.912V184.513C261.654 182.304 259.863 180.513 257.654 180.513Z" fill="#FEE3E2"/>
<path d="M163.097 164.641V161.708H163.765V164.658C163.765 165.858 164.299 166.236 164.985 166.236C165.672 166.236 166.232 165.858 166.232 164.658V161.708H166.871V164.641C166.871 166.244 166.058 166.797 164.99 166.797C163.922 166.797 163.097 166.244 163.097 164.641Z" fill="#292929"/>
<path d="M168.08 166.281L168.404 165.87C168.724 166.145 169.13 166.3 169.552 166.307C170.064 166.307 170.318 166.05 170.318 165.733C170.318 165.353 169.848 165.185 169.427 165.024C168.881 164.835 168.268 164.58 168.268 163.956C168.268 163.332 168.766 162.907 169.608 162.907C170.045 162.911 170.47 163.056 170.819 163.32L170.504 163.722C170.25 163.521 169.94 163.406 169.617 163.394C169.126 163.394 168.912 163.642 168.912 163.923C168.912 164.275 169.335 164.41 169.775 164.566C170.337 164.767 170.951 164.984 170.951 165.688C170.951 166.289 170.45 166.79 169.54 166.79C169.011 166.786 168.498 166.607 168.08 166.281Z" fill="#292929"/>
<path d="M171.896 164.859C171.896 163.653 172.75 162.914 173.645 162.914C174.638 162.914 175.2 163.589 175.2 164.648C175.201 164.768 175.19 164.887 175.169 165.005H172.547C172.594 165.787 173.098 166.295 173.841 166.295C174.185 166.294 174.522 166.191 174.809 166L175.044 166.411C174.662 166.661 174.215 166.795 173.758 166.796C172.721 166.796 171.896 166.073 171.896 164.859ZM174.617 164.556C174.617 163.814 174.266 163.412 173.657 163.412C173.109 163.412 172.623 163.828 172.543 164.556H174.617Z" fill="#292929"/>
<path d="M176.477 163.003H177.022L177.076 163.677H177.1C177.37 163.204 177.767 162.913 178.205 162.913C178.347 162.906 178.49 162.932 178.621 162.989L178.499 163.537C178.377 163.496 178.249 163.475 178.12 163.476C177.791 163.476 177.398 163.712 177.135 164.329V166.692H176.477V163.003Z" fill="#292929"/>
<path d="M179.576 163.003H180.119L180.175 163.537H180.196C180.568 163.19 180.968 162.914 181.504 162.914C182.322 162.914 182.691 163.415 182.691 164.36V166.704H182.033V164.44C182.033 163.75 181.814 163.457 181.299 163.457C180.899 163.457 180.624 163.649 180.234 164.024V166.704H179.576V163.003Z" fill="#292929"/>
<path d="M184.033 165.742C184.033 164.936 184.767 164.535 186.425 164.362C186.425 163.89 186.258 163.417 185.62 163.417C185.205 163.437 184.803 163.575 184.461 163.814L184.202 163.384C184.659 163.088 185.188 162.925 185.731 162.911C186.671 162.911 187.083 163.509 187.083 164.431V166.702H186.537L186.481 166.26H186.46C186.102 166.578 185.648 166.766 185.171 166.794C184.522 166.796 184.033 166.411 184.033 165.742ZM186.425 165.801V164.773C185.12 164.922 184.68 165.227 184.68 165.7C184.68 166.12 184.978 166.291 185.362 166.291C185.745 166.291 186.048 166.116 186.425 165.801Z" fill="#292929"/>
<path d="M188.63 163.003H189.176L189.23 163.54H189.253C189.404 163.36 189.588 163.212 189.796 163.104C190.004 162.997 190.231 162.932 190.464 162.914C190.697 162.891 190.931 162.949 191.126 163.078C191.321 163.207 191.467 163.399 191.539 163.622C191.943 163.207 192.348 162.914 192.82 162.914C193.622 162.914 193.996 163.415 193.996 164.36V166.704H193.357V164.44C193.357 163.75 193.121 163.457 192.632 163.457C192.331 163.457 192.016 163.644 191.657 164.024V166.704H190.998V164.44C190.998 163.75 190.763 163.457 190.274 163.457C189.982 163.457 189.66 163.644 189.298 164.024V166.704H188.64L188.63 163.003Z" fill="#292929"/>
<path d="M195.301 164.859C195.301 163.653 196.155 162.914 197.051 162.914C198.043 162.914 198.603 163.589 198.603 164.648C198.604 164.768 198.593 164.887 198.572 165.005H195.943C195.993 165.787 196.496 166.295 197.236 166.295C197.581 166.295 197.918 166.192 198.205 166L198.44 166.411C198.058 166.661 197.612 166.795 197.156 166.796C196.127 166.796 195.301 166.073 195.301 164.859ZM198.022 164.556C198.022 163.814 197.669 163.412 197.062 163.412C196.515 163.412 196.025 163.828 195.946 164.556H198.022Z" fill="#292929"/>
<path d="M148.044 162.656C148.044 162.99 147.946 163.317 147.761 163.595C147.577 163.873 147.315 164.09 147.007 164.218C146.7 164.347 146.362 164.38 146.036 164.316C145.71 164.251 145.41 164.09 145.174 163.854C144.939 163.617 144.779 163.316 144.714 162.989C144.649 162.661 144.682 162.321 144.809 162.012C144.936 161.703 145.152 161.439 145.428 161.253C145.705 161.067 146.03 160.968 146.362 160.968C146.808 160.968 147.235 161.146 147.55 161.462C147.866 161.779 148.043 162.208 148.044 162.656Z" fill="#292929"/>
<path d="M145.669 164.345H147.054C147.442 164.345 147.826 164.422 148.184 164.571C148.543 164.72 148.869 164.94 149.143 165.216C149.417 165.492 149.634 165.82 149.781 166.181C149.929 166.542 150.004 166.928 150.002 167.318V167.555H142.727V167.318C142.727 166.533 143.037 165.78 143.59 165.224C144.143 164.669 144.892 164.357 145.673 164.357L145.669 164.345Z" fill="#292929"/>
<path d="M163.097 190.715C163.097 190.575 163.139 190.438 163.216 190.321C163.294 190.204 163.404 190.113 163.533 190.06C163.662 190.006 163.803 189.992 163.94 190.019C164.077 190.047 164.203 190.114 164.301 190.214C164.4 190.313 164.467 190.439 164.494 190.577C164.522 190.714 164.508 190.857 164.454 190.986C164.401 191.116 164.31 191.226 164.194 191.304C164.078 191.382 163.942 191.424 163.803 191.424C163.615 191.424 163.436 191.349 163.304 191.216C163.171 191.083 163.097 190.903 163.097 190.715Z" fill="#292929"/>
<path d="M166.528 190.715C166.528 190.575 166.569 190.438 166.647 190.321C166.724 190.204 166.834 190.113 166.963 190.06C167.092 190.006 167.234 189.992 167.371 190.019C167.508 190.047 167.633 190.114 167.732 190.214C167.831 190.313 167.898 190.439 167.925 190.577C167.952 190.714 167.938 190.857 167.885 190.986C167.832 191.116 167.741 191.226 167.625 191.304C167.509 191.382 167.373 191.424 167.233 191.424C167.046 191.424 166.867 191.349 166.734 191.216C166.602 191.083 166.528 190.903 166.528 190.715Z" fill="#292929"/>
<path d="M169.961 190.715C169.961 190.575 170.002 190.438 170.079 190.321C170.157 190.204 170.267 190.113 170.396 190.06C170.525 190.006 170.667 189.992 170.804 190.019C170.94 190.047 171.066 190.114 171.165 190.214C171.263 190.313 171.331 190.439 171.358 190.577C171.385 190.714 171.371 190.857 171.318 190.986C171.264 191.116 171.174 191.226 171.058 191.304C170.942 191.382 170.806 191.424 170.666 191.424C170.573 191.426 170.48 191.409 170.394 191.374C170.307 191.339 170.229 191.287 170.163 191.22C170.097 191.154 170.045 191.075 170.01 190.988C169.976 190.902 169.959 190.808 169.961 190.715Z" fill="#292929"/>
<path d="M173.391 190.715C173.391 190.575 173.432 190.438 173.51 190.321C173.588 190.204 173.698 190.113 173.827 190.06C173.955 190.006 174.097 189.992 174.234 190.019C174.371 190.047 174.497 190.114 174.595 190.214C174.694 190.313 174.761 190.439 174.788 190.577C174.816 190.714 174.802 190.857 174.748 190.986C174.695 191.116 174.604 191.226 174.488 191.304C174.372 191.382 174.236 191.424 174.097 191.424C173.909 191.424 173.73 191.349 173.598 191.216C173.465 191.083 173.391 190.903 173.391 190.715Z" fill="#292929"/>
<path d="M176.822 190.715C176.822 190.575 176.864 190.438 176.941 190.321C177.019 190.204 177.129 190.113 177.258 190.06C177.387 190.006 177.528 189.992 177.665 190.019C177.802 190.047 177.928 190.114 178.026 190.214C178.125 190.313 178.192 190.439 178.22 190.577C178.247 190.714 178.233 190.857 178.179 190.986C178.126 191.116 178.036 191.226 177.92 191.304C177.804 191.382 177.667 191.424 177.528 191.424C177.341 191.424 177.161 191.349 177.029 191.216C176.897 191.083 176.822 190.903 176.822 190.715Z" fill="#292929"/>
<path d="M180.255 190.715C180.255 190.575 180.296 190.438 180.374 190.321C180.451 190.204 180.562 190.113 180.69 190.06C180.819 190.006 180.961 189.992 181.098 190.019C181.235 190.047 181.361 190.114 181.459 190.214C181.558 190.313 181.625 190.439 181.652 190.577C181.679 190.714 181.665 190.857 181.612 190.986C181.559 191.116 181.468 191.226 181.352 191.304C181.236 191.382 181.1 191.424 180.96 191.424C180.867 191.425 180.775 191.408 180.689 191.373C180.602 191.338 180.524 191.286 180.458 191.22C180.392 191.154 180.34 191.075 180.305 190.988C180.271 190.901 180.253 190.808 180.255 190.715Z" fill="#292929"/>
<path d="M183.686 190.715C183.686 190.575 183.727 190.438 183.804 190.321C183.882 190.204 183.992 190.113 184.121 190.06C184.25 190.006 184.392 189.992 184.529 190.019C184.665 190.047 184.791 190.114 184.89 190.214C184.988 190.313 185.056 190.439 185.083 190.577C185.11 190.714 185.096 190.857 185.043 190.986C184.989 191.116 184.899 191.226 184.783 191.304C184.667 191.382 184.53 191.424 184.391 191.424C184.204 191.424 184.024 191.349 183.892 191.216C183.76 191.083 183.686 190.903 183.686 190.715Z" fill="#292929"/>
<path d="M187.119 190.715C187.119 190.575 187.16 190.438 187.238 190.321C187.315 190.204 187.425 190.113 187.554 190.06C187.683 190.006 187.825 189.992 187.962 190.019C188.099 190.047 188.224 190.114 188.323 190.214C188.422 190.313 188.489 190.439 188.516 190.577C188.543 190.714 188.529 190.857 188.476 190.986C188.423 191.116 188.332 191.226 188.216 191.304C188.1 191.382 187.964 191.424 187.824 191.424C187.731 191.426 187.638 191.409 187.552 191.374C187.466 191.339 187.387 191.287 187.321 191.22C187.255 191.154 187.203 191.075 187.169 190.988C187.134 190.902 187.117 190.808 187.119 190.715Z" fill="#292929"/>
<path d="M190.549 190.715C190.549 190.575 190.591 190.438 190.668 190.321C190.746 190.204 190.856 190.113 190.985 190.06C191.114 190.006 191.256 189.992 191.392 190.019C191.529 190.047 191.655 190.114 191.754 190.214C191.852 190.313 191.919 190.439 191.947 190.577C191.974 190.714 191.96 190.857 191.907 190.986C191.853 191.116 191.763 191.226 191.647 191.304C191.531 191.382 191.394 191.424 191.255 191.424C191.162 191.425 191.069 191.408 190.983 191.373C190.897 191.338 190.818 191.286 190.752 191.22C190.687 191.154 190.635 191.075 190.6 190.988C190.565 190.901 190.548 190.808 190.549 190.715Z" fill="#292929"/>
<path d="M193.979 190.715C193.979 190.575 194.021 190.438 194.098 190.321C194.176 190.204 194.286 190.113 194.415 190.06C194.544 190.006 194.686 189.992 194.823 190.019C194.959 190.047 195.085 190.114 195.184 190.214C195.282 190.313 195.35 190.439 195.377 190.577C195.404 190.714 195.39 190.857 195.337 190.986C195.283 191.116 195.193 191.226 195.077 191.304C194.961 191.382 194.824 191.424 194.685 191.424C194.498 191.424 194.318 191.349 194.186 191.216C194.054 191.083 193.979 190.903 193.979 190.715Z" fill="#292929"/>
<path d="M197.413 190.715C197.413 190.575 197.454 190.438 197.532 190.321C197.609 190.204 197.719 190.113 197.848 190.06C197.977 190.006 198.119 189.992 198.256 190.019C198.393 190.047 198.518 190.114 198.617 190.214C198.716 190.313 198.783 190.439 198.81 190.577C198.837 190.714 198.823 190.857 198.77 190.986C198.716 191.116 198.626 191.226 198.51 191.304C198.394 191.382 198.258 191.424 198.118 191.424C198.025 191.426 197.932 191.409 197.846 191.374C197.76 191.339 197.681 191.287 197.615 191.22C197.549 191.154 197.497 191.075 197.463 190.988C197.428 190.902 197.411 190.808 197.413 190.715Z" fill="#292929"/>
<path d="M150.096 189.311H142.628V194.189H150.096V189.311Z" fill="#292929"/>
<path d="M146.363 191.915C145.867 191.915 145.382 191.768 144.97 191.491C144.557 191.214 144.236 190.82 144.047 190.36C143.857 189.899 143.807 189.393 143.904 188.904C144.001 188.415 144.24 187.966 144.591 187.614C144.942 187.262 145.389 187.022 145.875 186.925C146.361 186.828 146.865 186.878 147.323 187.069C147.781 187.26 148.173 187.584 148.448 187.998C148.723 188.413 148.87 188.9 148.869 189.399C148.868 190.066 148.603 190.706 148.133 191.178C147.664 191.649 147.027 191.915 146.363 191.915ZM146.363 187.588C146.006 187.588 145.658 187.694 145.362 187.893C145.066 188.092 144.835 188.375 144.698 188.706C144.562 189.037 144.526 189.401 144.596 189.752C144.665 190.103 144.837 190.425 145.089 190.679C145.341 190.932 145.662 191.104 146.011 191.174C146.361 191.244 146.723 191.208 147.052 191.071C147.381 190.934 147.662 190.702 147.86 190.404C148.058 190.107 148.164 189.757 148.164 189.399C148.164 188.918 147.974 188.458 147.636 188.118C147.298 187.779 146.84 187.588 146.363 187.588Z" fill="#292929"/>
<path d="M145.097 209.895H139.562V215.458H145.097V209.895Z" fill="#292929"/>
<path d="M141.925 213.957C141.873 213.957 141.821 213.945 141.774 213.922C141.727 213.899 141.685 213.866 141.652 213.825L140.756 212.7C140.698 212.626 140.671 212.532 140.682 212.439C140.693 212.345 140.74 212.26 140.813 212.201C140.886 212.143 140.98 212.116 141.073 212.126C141.166 212.137 141.251 212.184 141.309 212.258L141.93 213.04L143.667 210.913C143.696 210.876 143.732 210.844 143.773 210.821C143.814 210.798 143.86 210.783 143.907 210.778C143.954 210.772 144.001 210.776 144.046 210.79C144.092 210.803 144.134 210.826 144.17 210.856C144.207 210.886 144.237 210.923 144.259 210.965C144.281 211.007 144.294 211.053 144.298 211.1C144.302 211.147 144.297 211.195 144.282 211.24C144.267 211.285 144.244 211.327 144.213 211.362L142.2 213.834C142.166 213.874 142.124 213.906 142.077 213.927C142.029 213.948 141.977 213.959 141.925 213.957Z" fill="white"/>
<path d="M362.043 173.253V250.347C357.195 263.47 349.76 275.475 340.185 285.641C330.609 295.806 319.089 303.924 306.316 309.506L306.156 309.575C293.43 303.929 281.958 295.779 272.416 285.607C262.873 275.435 255.453 263.446 250.593 250.347V173.253L306.222 156.781L306.313 156.807L362.043 173.253Z" fill="white"/>
<path d="M362.043 173.253V250.347C357.195 263.47 349.761 275.475 340.185 285.641C330.609 295.806 319.089 303.924 306.316 309.506V156.807L362.043 173.253Z" fill="#EE4037"/>
<path d="M306.158 309.93C306.11 309.929 306.062 309.92 306.017 309.901C292.76 303.986 280.857 295.391 271.05 284.65C262 274.706 254.942 263.102 250.264 250.472C250.25 250.432 250.243 250.39 250.243 250.347V173.253C250.243 173.177 250.267 173.102 250.313 173.041C250.358 172.98 250.422 172.935 250.495 172.913L306.128 156.448C306.189 156.43 306.254 156.43 306.316 156.448L306.377 156.464H306.41L362.137 172.913C362.211 172.934 362.275 172.978 362.321 173.04C362.367 173.101 362.391 173.176 362.391 173.253V250.347C362.391 250.39 362.384 250.432 362.37 250.472C357.708 263.111 350.648 274.718 341.582 284.65C331.737 295.398 319.775 303.971 306.457 309.823L306.297 309.894C306.254 309.915 306.207 309.927 306.158 309.93ZM250.949 250.283C255.593 262.806 262.595 274.311 271.572 284.17C281.277 294.801 293.049 303.316 306.161 309.19H306.182C319.409 303.374 331.289 294.857 341.067 284.18C350.058 274.332 357.062 262.823 361.69 250.293V173.518L306.222 157.157L250.944 173.525L250.949 250.283Z" fill="#292929"/>
<path d="M304.256 186.026L279.567 193.336C278.091 193.772 276.796 194.678 275.874 195.916C274.953 197.154 274.455 198.659 274.455 200.206V237.585C274.456 238.504 274.631 239.413 274.972 240.265C280.295 253.626 290.228 264.613 302.953 271.212C303.963 271.738 305.082 272.014 306.219 272.018C307.356 272.022 308.477 271.754 309.49 271.236C322.313 264.696 332.325 253.684 337.652 240.26C337.99 239.411 338.164 238.505 338.165 237.59V200.21C338.165 198.663 337.666 197.157 336.743 195.918C335.82 194.68 334.523 193.774 333.046 193.338L308.265 186.012C306.955 185.631 305.564 185.636 304.256 186.026Z" fill="white"/>
<path d="M306.257 272.368C305.055 272.369 303.871 272.081 302.803 271.526C290 264.889 280.005 253.837 274.65 240.395C274.294 239.502 274.11 238.548 274.109 237.585V200.206C274.117 198.585 274.642 197.009 275.608 195.711C276.574 194.412 277.93 193.461 279.475 192.995L304.164 185.686C305.546 185.276 307.016 185.276 308.397 185.686L333.175 193C334.722 193.464 336.08 194.416 337.047 195.714C338.015 197.013 338.541 198.59 338.548 200.213V237.592C338.548 238.553 338.366 239.504 338.01 240.395C332.651 253.898 322.58 264.975 309.681 271.552C308.62 272.093 307.446 272.372 306.257 272.368ZM306.271 186.088C305.622 186.089 304.977 186.182 304.355 186.367L279.666 193.674C278.266 194.095 277.038 194.958 276.163 196.134C275.288 197.31 274.812 198.737 274.805 200.206V237.585C274.805 238.458 274.972 239.323 275.297 240.133C280.589 253.415 290.465 264.337 303.116 270.898C304.077 271.395 305.141 271.656 306.222 271.66C307.302 271.664 308.369 271.41 309.333 270.919C322.075 264.417 332.023 253.47 337.314 240.128C337.637 239.321 337.803 238.46 337.803 237.59V200.21C337.796 198.741 337.319 197.314 336.443 196.138C335.567 194.961 334.338 194.099 332.938 193.678L308.157 186.364C307.545 186.183 306.91 186.09 306.271 186.088Z" fill="#292929"/>
<path d="M312.08 224.366C315.263 221.167 315.263 215.981 312.08 212.782C308.897 209.583 303.737 209.583 300.554 212.782C297.372 215.981 297.372 221.167 300.554 224.366C303.737 227.565 308.897 227.565 312.08 224.366Z" fill="#EE4037"/>
<path d="M303.205 221.794H309.439V237.807C309.439 238.637 309.111 239.433 308.527 240.02C307.943 240.607 307.151 240.936 306.325 240.936C305.5 240.936 304.708 240.607 304.124 240.02C303.54 239.433 303.212 238.637 303.212 237.807V221.794H303.205Z" fill="#EE4037"/>
<path d="M104.099 0H103.918C98.0043 0 92.3327 2.36113 88.151 6.56396C83.9694 10.7668 81.6201 16.4671 81.6201 22.4108V37.9326H126.392V22.4108C126.393 19.4681 125.816 16.5541 124.696 13.8353C123.576 11.1164 121.934 8.64597 119.864 6.56494C117.794 4.48391 115.336 2.83306 112.631 1.70664C109.926 0.580229 107.027 0.000310331 104.099 0ZM117.685 32.7264H90.3295V23.2403C90.3295 19.6094 91.7647 16.1272 94.3192 13.5597C96.8737 10.9923 100.338 9.54992 103.951 9.54992H104.061C105.85 9.54961 107.622 9.90349 109.275 10.5914C110.928 11.2792 112.43 12.2876 113.695 13.5589C114.96 14.8302 115.963 16.3395 116.648 18.0007C117.333 19.6618 117.685 21.4422 117.685 23.2403V32.7264Z" fill="#EE4037"/>
<path d="M81.6203 37.2469C81.5267 37.2469 81.437 37.2096 81.3709 37.1431C81.3047 37.0766 81.2676 36.9865 81.2676 36.8925V22.4104C81.2788 18.4507 82.3121 14.5618 84.2665 11.1236C86.2209 7.6855 89.0295 4.81591 92.4177 2.79539C92.4577 2.77181 92.5019 2.75637 92.5478 2.74996C92.5938 2.74355 92.6405 2.74629 92.6854 2.75803C92.7302 2.76977 92.7724 2.79028 92.8093 2.81838C92.8463 2.84649 92.8775 2.88164 92.9009 2.92183C92.9244 2.96202 92.9397 3.00646 92.9461 3.05262C92.9525 3.09877 92.9498 3.14574 92.9381 3.19084C92.9264 3.23593 92.906 3.27827 92.878 3.31545C92.8501 3.35262 92.8151 3.38389 92.7751 3.40748C89.492 5.36483 86.7706 8.14518 84.8771 11.4765C82.9837 14.8079 81.983 18.5762 81.973 22.4128V36.8948C81.9724 36.9884 81.9349 37.078 81.8689 37.144C81.8028 37.2099 81.7134 37.2469 81.6203 37.2469Z" fill="#292929"/>
<path d="M92.5967 3.45514C92.5188 3.45575 92.4428 3.43042 92.3808 3.38309C92.3187 3.33576 92.2739 3.2691 92.2535 3.19352C92.2331 3.11794 92.2382 3.0377 92.2679 2.96531C92.2977 2.89293 92.3504 2.83249 92.418 2.79343C93.3756 2.22547 94.3738 1.72941 95.4042 1.3093C95.4471 1.29177 95.4931 1.2829 95.5394 1.28321C95.5857 1.28352 95.6315 1.293 95.6742 1.3111C95.7169 1.3292 95.7556 1.35558 95.7882 1.38873C95.8207 1.42187 95.8464 1.46113 95.8639 1.50427C95.8813 1.54741 95.8902 1.59358 95.8898 1.64014C95.8895 1.68671 95.8801 1.73276 95.8621 1.77566C95.8441 1.81856 95.8178 1.85748 95.7849 1.89018C95.7519 1.92289 95.7128 1.94875 95.6699 1.96629C94.6707 2.37288 93.7032 2.85396 92.7754 3.40551C92.7213 3.43778 92.6596 3.45491 92.5967 3.45514Z" fill="#292929"/>
<path d="M128.027 29.751H79.9861C75.5747 29.751 71.9985 33.3452 71.9985 37.779V74.5323C71.9985 78.9661 75.5747 82.5603 79.9861 82.5603H128.027C132.438 82.5603 136.014 78.9661 136.014 74.5323V37.779C136.014 33.3452 132.438 29.751 128.027 29.751Z" fill="#EE4037"/>
<path d="M128.026 82.9148H79.9882C77.7774 82.9123 75.6578 82.0287 74.0943 80.4577C72.5308 78.8867 71.6511 76.7567 71.6479 74.5347V37.7789C71.6504 35.5565 72.5299 33.4259 74.0935 31.8544C75.6571 30.2829 77.777 29.399 79.9882 29.3965H128.026C130.238 29.399 132.358 30.2829 133.921 31.8544C135.485 33.4259 136.364 35.5565 136.367 37.7789V74.5347C136.364 76.7567 135.484 78.8867 133.92 80.4577C132.357 82.0287 130.237 82.9123 128.026 82.9148ZM79.9882 30.1055C77.9641 30.108 76.0236 30.9172 74.5923 32.3557C73.161 33.7943 72.3558 35.7446 72.3534 37.7789V74.5347C72.3558 76.5688 73.1611 78.5189 74.5924 79.9571C76.0238 81.3952 77.9643 82.2039 79.9882 82.2058H128.026C130.05 82.2039 131.991 81.3952 133.422 79.9571C134.854 78.5189 135.659 76.5688 135.661 74.5347V37.7789C135.659 35.7446 134.854 33.7943 133.422 32.3557C131.991 30.9172 130.051 30.108 128.026 30.1055H79.9882Z" fill="#292929"/>
<path d="M104.005 71.4033C103.269 71.4033 102.563 71.1095 102.043 70.5865C101.523 70.0636 101.23 69.3542 101.23 68.6147V59.8706H106.78V68.6147C106.78 69.3542 106.487 70.0636 105.967 70.5865C105.447 71.1095 104.741 71.4033 104.005 71.4033Z" fill="white"/>
<path d="M107.88 49.4629H100.132C98.8999 49.4629 97.9009 50.467 97.9009 51.7056V58.3771C97.9009 59.6157 98.8999 60.6198 100.132 60.6198H107.88C109.112 60.6198 110.111 59.6157 110.111 58.3771V51.7056C110.111 50.467 109.112 49.4629 107.88 49.4629Z" fill="white"/>
<path d="M376.776 163.899C376.776 168.641 375.377 173.277 372.756 177.22C370.134 181.163 366.408 184.237 362.049 186.052C357.69 187.866 352.893 188.341 348.265 187.416C343.637 186.491 339.386 184.207 336.05 180.854C332.714 177.501 330.441 173.228 329.521 168.577C328.6 163.926 329.073 159.105 330.879 154.723C332.684 150.342 335.742 146.597 339.665 143.962C343.588 141.328 348.201 139.922 352.919 139.922C356.055 139.911 359.162 140.523 362.062 141.724C364.961 142.926 367.595 144.691 369.813 146.92C372.03 149.149 373.787 151.796 374.982 154.71C376.177 157.624 376.787 160.747 376.776 163.899Z" fill="white"/>
<path d="M352.92 188.231C347.373 188.231 341.995 186.316 337.686 182.807C333.376 179.299 330.396 174.409 329.244 168.956C328.092 163.503 328.838 157.818 331.358 152.852C333.877 147.886 338.017 143.941 343.085 141.675C348.153 139.41 353.841 138.963 359.197 140.408C364.554 141.854 369.254 145.104 372.511 149.616C375.769 154.128 377.386 159.627 377.092 165.193C376.797 170.76 374.61 176.056 370.896 180.196C368.624 182.723 365.851 184.744 362.755 186.128C359.659 187.511 356.308 188.228 352.92 188.231ZM352.92 140.278C348.269 140.278 343.722 141.664 339.855 144.262C335.988 146.859 332.974 150.551 331.195 154.87C329.416 159.189 328.951 163.941 329.859 168.525C330.767 173.11 333.008 177.321 336.297 180.626C339.587 183.93 343.778 186.18 348.34 187.091C352.902 188.001 357.63 187.531 361.926 185.741C366.222 183.95 369.894 180.92 372.476 177.032C375.058 173.144 376.436 168.573 376.433 163.899C376.426 157.634 373.946 151.629 369.537 147.201C365.129 142.772 359.152 140.282 352.92 140.278Z" fill="#EE4037"/>
<path d="M363.691 161.548C364.61 155.836 360.747 150.456 355.063 149.533C349.379 148.61 344.027 152.492 343.109 158.205C342.19 163.917 346.053 169.297 351.737 170.22C357.42 171.143 362.773 167.261 363.691 161.548Z" fill="#EE4037"/>
<path d="M370.635 179.962C368.398 182.454 365.664 184.447 362.612 185.81C359.56 187.174 356.258 187.879 352.918 187.879C349.578 187.879 346.275 187.174 343.223 185.81C340.171 184.447 337.438 182.454 335.2 179.962C336.751 177.401 338.907 175.264 341.477 173.741C344.047 172.219 346.951 171.358 349.931 171.234C350.167 171.234 350.402 171.218 350.656 171.218H355.175C355.41 171.218 355.645 171.218 355.899 171.234C358.882 171.352 361.789 172.21 364.36 173.733C366.932 175.256 369.088 177.396 370.635 179.962Z" fill="#EE4037"/>
<path d="M93.4454 94.5299C93.443 98.5511 92.2546 102.481 90.0303 105.824C87.8061 109.166 84.6458 111.771 80.949 113.308C77.2521 114.846 73.1847 115.248 69.2609 114.462C65.337 113.677 61.7328 111.74 58.9039 108.897C56.075 106.053 54.1484 102.431 53.3676 98.4869C52.5868 94.5431 52.9868 90.4551 54.5171 86.7398C56.0475 83.0244 58.6394 79.8484 61.9652 77.6133C65.2911 75.3781 69.2016 74.1842 73.2025 74.1823C75.8641 74.1714 78.5015 74.6902 80.9625 75.7089C83.4236 76.7276 85.6596 78.2261 87.5415 80.1177C89.4234 82.0094 90.914 84.2569 91.9273 86.7305C92.9406 89.2041 93.4566 91.8549 93.4454 94.5299Z" fill="white"/>
<path d="M73.2022 115.209C68.4861 115.208 63.9132 113.58 60.2486 110.596C56.5841 107.613 54.0502 103.454 53.0711 98.8177C52.0919 94.181 52.7268 89.347 54.8696 85.1245C57.0124 80.902 60.533 77.5472 64.8424 75.6215C69.1518 73.6958 73.9885 73.3159 78.5432 74.5456C83.0978 75.7752 87.0942 78.5397 89.8635 82.3765C92.6328 86.2132 94.007 90.8895 93.7563 95.6228C93.5056 100.356 91.645 104.859 88.486 108.379C86.554 110.526 84.1959 112.244 81.5636 113.42C78.9313 114.596 76.083 115.206 73.2022 115.209ZM73.2022 74.5369C69.2711 74.5388 65.4288 75.712 62.1609 77.9082C58.893 80.1044 56.3463 83.225 54.8427 86.8756C53.3391 90.5262 52.946 94.5428 53.7132 98.4179C54.4804 102.293 56.3735 105.852 59.153 108.646C61.9326 111.44 65.4739 113.343 69.3294 114.115C73.1848 114.886 77.1813 114.492 80.8137 112.981C84.4461 111.47 87.5513 108.911 89.7368 105.627C91.9223 102.343 93.09 98.4811 93.0924 94.5301C93.0892 89.2289 90.9928 84.1458 87.2634 80.3971C83.534 76.6484 78.4767 74.5407 73.2022 74.5369Z" fill="#EE4037"/>
<path d="M79.4421 98.5124C82.8847 95.0524 82.8847 89.4427 79.4421 85.9827C75.9996 82.5227 70.4181 82.5227 66.9755 85.9827C63.5329 89.4427 63.5329 95.0524 66.9755 98.5124C70.4181 101.972 75.9996 101.972 79.4421 98.5124Z" fill="#EE4037"/>
<path d="M88.2344 108.14C86.337 110.254 84.0193 111.944 81.431 113.101C78.8428 114.258 76.0418 114.855 73.2093 114.855C70.3767 114.855 67.5757 114.258 64.9874 113.101C62.3992 111.944 60.0814 110.254 58.1841 108.14C59.4973 105.966 61.3252 104.153 63.5049 102.861C65.6846 101.569 68.1484 100.839 70.6768 100.736C70.8814 100.736 71.086 100.736 71.2905 100.736H75.1232C75.3278 100.736 75.5324 100.736 75.737 100.736C78.2667 100.836 80.7325 101.564 82.9135 102.856C85.0945 104.149 86.9227 105.964 88.2344 108.14Z" fill="#EE4037"/>
<path d="M83.0993 159.851C83.0057 159.851 82.916 159.813 82.8499 159.747C82.7837 159.68 82.7466 159.59 82.7466 159.496V139.668C82.7466 139.574 82.7837 139.484 82.8499 139.418C82.916 139.351 83.0057 139.314 83.0993 139.314C83.1928 139.314 83.2825 139.351 83.3487 139.418C83.4148 139.484 83.452 139.574 83.452 139.668V159.496C83.452 159.59 83.4148 159.68 83.3487 159.747C83.2825 159.813 83.1928 159.851 83.0993 159.851Z" fill="#B9241C"/>
<path d="M89.3399 177.858C91.4521 174.395 90.3713 169.867 86.9259 167.744C83.4805 165.621 78.9752 166.708 76.863 170.17C74.7508 173.633 75.8316 178.161 79.277 180.284C82.7224 182.407 87.2277 181.321 89.3399 177.858Z" fill="#FEE3E2"/>
<path d="M89.8022 202.287C91.4285 198.568 89.7478 194.229 86.0482 192.594C82.3486 190.96 78.031 192.649 76.4047 196.367C74.7784 200.086 76.4591 204.425 80.1587 206.06C83.8583 207.694 88.1759 206.005 89.8022 202.287Z" fill="#FEE3E2"/>
<path d="M89.9732 227.111C91.3535 223.293 89.3932 219.074 85.5949 217.687C81.7966 216.3 77.5986 218.27 76.2183 222.087C74.8381 225.905 76.7984 230.124 80.5967 231.511C84.395 232.898 88.593 230.928 89.9732 227.111Z" fill="#FEE3E2"/>
<path d="M329.703 92.2969H307.633V74.7355C307.675 71.8224 308.856 69.043 310.921 66.998C312.985 64.953 315.768 63.8066 318.667 63.8066C321.565 63.8066 324.348 64.953 326.412 66.998C328.477 69.043 329.658 71.8224 329.7 74.7355L329.703 92.2969ZM308.341 91.5879H328.997V74.7355C328.956 72.0095 327.85 69.4091 325.918 67.4959C323.985 65.5828 321.381 64.5104 318.669 64.5104C315.956 64.5104 313.353 65.5828 311.42 67.4959C309.488 69.4091 308.381 72.0095 308.341 74.7355V91.5879Z" fill="#B9241C"/>
<path d="M318.668 107.824C327.233 107.824 334.177 100.845 334.177 92.2355C334.177 83.6265 327.233 76.6475 318.668 76.6475C310.102 76.6475 303.158 83.6265 303.158 92.2355C303.158 100.845 310.102 107.824 318.668 107.824Z" fill="#FCA9A5"/>
<path d="M318.667 92.8236C320.283 92.8236 321.592 91.5074 321.592 89.8837C321.592 88.2601 320.283 86.9438 318.667 86.9438C317.052 86.9438 315.742 88.2601 315.742 89.8837C315.742 91.5074 317.052 92.8236 318.667 92.8236Z" fill="#B9241C"/>
<path d="M318.667 99.2948C318.437 99.2948 318.208 99.2491 317.995 99.1603C317.782 99.0716 317.589 98.9415 317.426 98.7776C317.263 98.6136 317.134 98.419 317.046 98.2048C316.958 97.9906 316.913 97.7611 316.913 97.5294V91.6473C316.913 91.4157 316.958 91.1865 317.047 90.9726C317.135 90.7587 317.264 90.5643 317.427 90.4006C317.59 90.2369 317.783 90.1071 317.996 90.0185C318.209 89.9299 318.437 89.8843 318.667 89.8843C318.898 89.884 319.126 89.9293 319.339 90.0178C319.552 90.1062 319.746 90.2361 319.909 90.3998C320.072 90.5635 320.202 90.758 320.29 90.972C320.378 91.1861 320.424 91.4155 320.424 91.6473V97.5294C320.424 97.7613 320.379 97.991 320.291 98.2054C320.202 98.4197 320.073 98.6144 319.91 98.7784C319.747 98.9424 319.553 99.0724 319.34 99.161C319.126 99.2496 318.898 99.2951 318.667 99.2948Z" fill="#B9241C"/>
</svg>
