<svg width="20" height="20" viewBox="0 0 20 20" fill="none" xmlns="http://www.w3.org/2000/svg">
<path d="M8.64481 2.69904C9.09823 2.13432 9.32494 1.85196 9.59539 1.74423C9.85557 1.6406 10.1448 1.6406 10.4049 1.74423C10.6754 1.85196 10.9021 2.13432 11.3555 2.69904C11.608 3.01352 11.7343 3.17076 11.8919 3.27C12.0445 3.36605 12.2179 3.42301 12.397 3.43597C12.5821 3.44936 12.7777 3.39641 13.169 3.29049C13.8573 3.10417 14.2014 3.01101 14.4769 3.07962C14.7589 3.14986 15.0025 3.32967 15.1551 3.58032C15.3042 3.82515 15.3224 4.1811 15.3589 4.893C15.3792 5.29085 15.3894 5.48977 15.4565 5.66136C15.5255 5.83792 15.6375 5.99384 15.7821 6.11457C15.9226 6.2319 16.1077 6.30326 16.4779 6.44596C17.1361 6.69969 17.4652 6.82655 17.6485 7.04242C17.8425 7.27096 17.9378 7.56903 17.913 7.86959C17.8895 8.15349 17.6982 8.44951 17.3156 9.04154C17.1023 9.37156 16.9957 9.53658 16.9497 9.71324C16.9009 9.90109 16.9009 10.0986 16.9497 10.2864C16.9957 10.4631 17.1023 10.6281 17.3156 10.9581C17.6982 11.5502 17.8895 11.8462 17.913 12.1301C17.9378 12.4306 17.8425 12.7287 17.6485 12.9573C17.4652 13.1731 17.1361 13.3 16.4779 13.5537C16.1077 13.6964 15.9226 13.7678 15.7821 13.8851C15.6375 14.0058 15.5255 14.1618 15.4565 14.3383C15.3894 14.5099 15.3792 14.7088 15.3589 15.1067C15.3224 15.8186 15.3042 16.1745 15.1551 16.4194C15.0025 16.67 14.7589 16.8498 14.4769 16.9201C14.2014 16.9887 13.8573 16.8955 13.169 16.7092C12.7777 16.6033 12.5821 16.5503 12.397 16.5637C12.2179 16.5767 12.0445 16.6336 11.8919 16.7297C11.7343 16.8289 11.608 16.9862 11.3555 17.3006C10.9021 17.8654 10.6754 18.1477 10.4049 18.2554C10.1448 18.3591 9.85557 18.3591 9.59539 18.2554C9.32494 18.1477 9.09823 17.8654 8.64481 17.3006C8.39231 16.9862 8.26606 16.8289 8.1084 16.7297C7.95579 16.6336 7.78245 16.5767 7.60331 16.5637C7.41824 16.5503 7.22261 16.6033 6.83136 16.7092C6.14306 16.8955 5.79892 16.9887 5.52342 16.9201C5.24139 16.8498 4.99783 16.67 4.84521 16.4194C4.69612 16.1745 4.6779 15.8186 4.64145 15.1067C4.62108 14.7088 4.6109 14.5099 4.54381 14.3383C4.47479 14.1618 4.36278 14.0058 4.21825 13.8851C4.07777 13.7678 3.89267 13.6964 3.52247 13.5537C2.86425 13.3 2.53514 13.1731 2.35186 12.9573C2.15784 12.7287 2.06253 12.4306 2.08737 12.1301C2.11084 11.8462 2.30213 11.5502 2.68473 10.9581C2.89801 10.6281 3.00464 10.4631 3.05058 10.2864C3.09943 10.0986 3.09943 9.90109 3.05058 9.71324C3.00464 9.53658 2.89801 9.37156 2.68473 9.04154C2.30213 8.44951 2.11084 8.15349 2.08737 7.86959C2.06253 7.56903 2.15784 7.27096 2.35186 7.04242C2.53514 6.82655 2.86425 6.69969 3.52247 6.44596C3.89267 6.30326 4.07777 6.2319 4.21825 6.11457C4.36278 5.99384 4.47479 5.83792 4.54381 5.66136C4.6109 5.48977 4.62108 5.29085 4.64145 4.89301C4.6779 4.1811 4.69612 3.82515 4.84521 3.58032C4.99783 3.32967 5.24139 3.14986 5.52342 3.07962C5.79892 3.01101 6.14306 3.10417 6.83136 3.29049C7.22261 3.39641 7.41824 3.44936 7.60331 3.43597C7.78245 3.42301 7.95579 3.36605 8.1084 3.27C8.26606 3.17076 8.39231 3.01352 8.64481 2.69904Z" stroke="#4D9A56" stroke-width="1.5" stroke-linejoin="round"/>
<path d="M7.5 11.1108C7.5 11.1108 8.22917 11.1108 8.95833 12.4997C8.95833 12.4997 11.2745 9.02745 13.3333 8.33301" stroke="#4D9A56" stroke-width="1.5" stroke-linecap="round" stroke-linejoin="round"/>
</svg>
