<svg width="24" height="25" viewBox="0 0 24 25" fill="none" xmlns="http://www.w3.org/2000/svg">
<path d="M0.78613 15.2097C0.538034 16.7882 1.64722 17.8839 3.00528 18.4299C8.21183 20.5234 15.4573 20.5234 20.6638 18.4299C22.0219 17.8839 23.1311 16.7882 22.883 15.2097C22.7305 14.2396 21.9766 13.4318 21.418 12.643C20.6864 11.5971 20.6137 10.4563 20.6136 9.24265C20.6136 4.55229 16.6831 0.75 11.8346 0.75C6.98604 0.75 3.05553 4.55229 3.05553 9.24265C3.05543 10.4563 2.98273 11.5971 2.2511 12.643C1.69253 13.4318 0.938602 14.2396 0.78613 15.2097Z" stroke="#B9241C" stroke-width="1.5" stroke-linecap="round" stroke-linejoin="round"/>
<path d="M8.33472 22.917C9.26354 23.6425 10.4901 24.0837 11.8347 24.0837C13.1793 24.0837 14.4059 23.6425 15.3347 22.917" stroke="#B9241C" stroke-width="1.5" stroke-linecap="round" stroke-linejoin="round"/>
</svg>
