<svg width="28" height="28" viewBox="0 0 28 28" fill="none" xmlns="http://www.w3.org/2000/svg">
<path d="M16.9059 18.0835H16.9163M11.083 18.0835H11.0935" stroke="#EE4037" stroke-width="2" stroke-linecap="round" stroke-linejoin="round"/>
<path d="M4.97944 21.9855C5.2418 23.9341 6.85581 25.4608 8.81993 25.5511C10.4726 25.627 12.1515 25.6667 14.0003 25.6667C15.8491 25.6667 17.528 25.627 19.1807 25.5511C21.1448 25.4608 22.7589 23.9341 23.0212 21.9855C23.1924 20.7138 23.3337 19.4106 23.3337 18.0833C23.3337 16.7561 23.1924 15.4529 23.0212 14.1811C22.7589 12.2325 21.1448 10.7059 19.1807 10.6156C17.528 10.5396 15.8491 10.5 14.0003 10.5C12.1515 10.5 10.4726 10.5396 8.81993 10.6156C6.85581 10.7059 5.2418 12.2325 4.97944 14.1811C4.80821 15.4529 4.66699 16.7561 4.66699 18.0833C4.66699 19.4106 4.80821 20.7138 4.97944 21.9855Z" stroke="#EE4037" stroke-width="1.5"/>
<path d="M8.75 10.5002V7.5835C8.75 4.684 11.1005 2.3335 14 2.3335C16.8995 2.3335 19.25 4.684 19.25 7.5835V10.5002" stroke="#EE4037" stroke-width="1.5" stroke-linecap="round" stroke-linejoin="round"/>
</svg>
