<svg width="399" height="267" viewBox="0 0 399 267" fill="none" xmlns="http://www.w3.org/2000/svg">
<path d="M242.045 107.504C256.004 93.5448 256.004 70.9132 242.045 56.9544C228.086 42.9957 205.454 42.9957 191.495 56.9544C177.536 70.9132 177.536 93.5448 191.495 107.504C205.454 121.462 228.086 121.462 242.045 107.504Z" fill="white"/>
<path d="M142.306 121.742C154.559 109.489 154.559 89.6225 142.306 77.3694C130.053 65.1162 110.186 65.1162 97.9328 77.3694C85.6794 89.6225 85.6794 109.489 97.9328 121.742C110.186 133.995 130.053 133.995 142.306 121.742Z" fill="#EE4037"/>
<path d="M126.862 85.4229C127.419 81.6779 124.834 78.191 121.089 77.6347C117.344 77.0783 113.857 79.6632 113.3 83.4081C112.744 87.1531 115.329 90.64 119.074 91.1963C122.819 91.7527 126.306 89.1678 126.862 85.4229Z" fill="white"/>
<path d="M398.65 267H161.578C161.485 267 161.396 266.963 161.331 266.898C161.265 266.832 161.228 266.743 161.228 266.651C161.228 266.558 161.265 266.469 161.331 266.404C161.396 266.338 161.485 266.301 161.578 266.301H398.65C398.743 266.301 398.832 266.338 398.898 266.404C398.963 266.469 399 266.558 399 266.651C399 266.743 398.963 266.832 398.898 266.898C398.832 266.963 398.743 267 398.65 267Z" fill="#404040"/>
<path d="M136.298 267H0.350008C0.25718 267 0.168159 266.963 0.10252 266.898C0.0368808 266.832 0 266.743 0 266.651C0 266.558 0.0368808 266.469 0.10252 266.404C0.168159 266.338 0.25718 266.301 0.350008 266.301H136.298C136.391 266.301 136.48 266.338 136.545 266.404C136.611 266.469 136.648 266.558 136.648 266.651C136.648 266.743 136.611 266.832 136.545 266.898C136.48 266.963 136.391 267 136.298 267Z" fill="#404040"/>
<path d="M305.828 0.349609H182.408C175.721 0.349609 170.3 5.76111 170.3 12.4365V254.326C170.3 261.002 175.721 266.413 182.408 266.413H305.828C312.515 266.413 317.936 261.002 317.936 254.326V12.4365C317.936 5.76111 312.515 0.349609 305.828 0.349609Z" fill="white"/>
<path d="M305.828 266.762H182.41C179.106 266.759 175.939 265.447 173.603 263.115C171.267 260.783 169.953 257.622 169.95 254.324V12.4363C169.954 9.13893 171.268 5.97785 173.604 3.64646C175.94 1.31507 179.107 0.00369796 182.41 0H305.828C309.131 0.00369796 312.297 1.31507 314.633 3.64646C316.969 5.97785 318.283 9.13893 318.288 12.4363V254.324C318.284 257.622 316.97 260.783 314.634 263.115C312.298 265.447 309.131 266.759 305.828 266.762ZM182.41 0.698801C179.293 0.702498 176.304 1.94024 174.099 4.14058C171.895 6.34093 170.654 9.32426 170.65 12.4363V254.324C170.653 257.436 171.894 260.42 174.098 262.621C176.303 264.822 179.292 266.06 182.41 266.064H305.828C308.945 266.06 311.935 264.822 314.139 262.621C316.344 260.42 317.584 257.436 317.588 254.324V12.4363C317.583 9.32426 316.343 6.34093 314.138 4.14058C311.934 1.94024 308.945 0.702498 305.828 0.698801H182.41Z" fill="#404040"/>
<path d="M301.318 259.211H186.921C184.544 259.208 182.265 258.265 180.585 256.587C178.904 254.909 177.959 252.634 177.956 250.262V16.4987C177.959 14.1264 178.905 11.8521 180.585 10.1748C182.266 8.49756 184.544 7.55422 186.921 7.55176H301.318C303.694 7.55422 305.972 8.49764 307.652 10.175C309.333 11.8523 310.278 14.1266 310.28 16.4987V250.262C310.278 252.634 309.333 254.909 307.653 256.587C305.973 258.265 303.694 259.208 301.318 259.211ZM186.921 8.25056C184.73 8.25302 182.63 9.12274 181.08 10.669C179.531 12.2152 178.659 14.3117 178.656 16.4987V250.262C178.659 252.449 179.53 254.546 181.08 256.093C182.629 257.64 184.73 258.51 186.921 258.512H301.318C303.509 258.51 305.609 257.639 307.158 256.093C308.707 254.546 309.578 252.449 309.58 250.262V16.4987C309.578 14.3119 308.706 12.2154 307.157 10.6691C305.608 9.12281 303.508 8.25302 301.318 8.25056H186.921Z" fill="#404040"/>
<path d="M258.964 16.5264H225.833V17.2252H258.964V16.5264Z" fill="#404040"/>
<path d="M268.122 34.8862H172.673C163.34 34.8862 155.774 42.4388 155.774 51.7553V217.674C155.774 226.99 163.34 234.543 172.673 234.543H268.122C277.455 234.543 285.021 226.99 285.021 217.674V51.7553C285.021 42.4388 277.455 34.8862 268.122 34.8862Z" fill="white"/>
<path d="M268.12 234.893H172.666C168.092 234.888 163.707 233.073 160.472 229.844C157.238 226.615 155.419 222.238 155.415 217.672V51.7556C155.42 47.1901 157.239 42.813 160.473 39.5849C163.707 36.3568 168.092 34.5414 172.666 34.5371H268.101C272.678 34.5371 277.067 36.3506 280.304 39.5791C283.542 42.8077 285.363 47.1872 285.368 51.7556V217.676C285.363 222.241 283.544 226.617 280.31 229.845C277.077 233.072 272.693 234.888 268.12 234.893ZM172.666 35.2359C168.278 35.2402 164.071 36.982 160.968 40.079C157.865 43.1761 156.12 47.3754 156.115 51.7556V217.676C156.119 222.057 157.865 226.257 160.967 229.354C164.07 232.452 168.278 234.194 172.666 234.198H268.101C272.492 234.198 276.704 232.458 279.81 229.36C282.917 226.262 284.664 222.06 284.668 217.676V51.7556C284.663 47.3754 282.918 43.1761 279.815 40.079C276.712 36.982 272.505 35.2402 268.118 35.2359H172.666Z" fill="#404040"/>
<path d="M216.534 118.323C196.595 118.323 180.366 102.132 180.366 82.2185C180.366 62.305 196.586 46.1255 216.534 46.1255C236.482 46.1255 252.701 62.3167 252.701 82.2302C252.701 102.144 236.47 118.323 216.534 118.323ZM216.534 46.8336C196.982 46.8336 181.066 62.7127 181.066 82.2395C181.066 101.766 196.973 117.645 216.534 117.645C236.094 117.645 252.001 101.766 252.001 82.2395C252.001 62.7127 236.083 46.8336 216.534 46.8336Z" fill="#404040"/>
<path d="M228.303 123.338C228.21 123.347 228.118 123.318 228.046 123.259C227.974 123.2 227.929 123.114 227.92 123.022C227.912 122.929 227.94 122.837 228 122.765C228.059 122.693 228.145 122.648 228.238 122.64C244.7 119.458 257.47 105.617 259.295 88.9806C259.305 88.888 259.351 88.803 259.424 88.7445C259.497 88.6859 259.59 88.6586 259.683 88.6685C259.775 88.6784 259.86 88.7247 259.919 88.7972C259.978 88.8697 260.005 88.9625 259.995 89.0552C259.071 97.3877 255.505 105.208 249.816 111.375C244.127 117.542 236.613 121.733 228.371 123.338C228.348 123.341 228.326 123.341 228.303 123.338Z" fill="#404040"/>
<path d="M216.469 98.277C210.869 98.277 205.268 98.277 199.668 98.277C197.904 98.277 197.372 97.7553 197.802 96.0385C198.308 93.9817 198.84 91.883 199.755 89.9823C201.253 86.8773 204.025 85.2444 207.408 85.1792C213.708 85.0581 219.997 85.0744 226.283 85.2863C229.669 85.4005 232.184 87.3501 233.561 90.4225C234.373 92.2324 234.856 94.2124 235.297 96.1573C235.658 97.7553 235.133 98.2677 233.512 98.2701C227.829 98.2809 222.148 98.2832 216.469 98.277Z" fill="#EE4037"/>
<path d="M226.03 98.6284H211.255C207.393 98.6284 203.532 98.6284 199.672 98.6284C198.58 98.6284 197.964 98.4327 197.61 97.9809C197.255 97.529 197.22 96.921 197.458 95.9567C197.925 94.021 198.478 91.8268 199.437 89.8398C200.958 86.6859 203.786 84.9086 207.398 84.8387C214.095 84.7083 220.274 84.7432 226.299 84.9459C229.699 85.0624 232.391 86.9584 233.885 90.2871C234.713 92.1365 235.208 94.1677 235.644 96.0894C235.845 96.9816 235.786 97.5919 235.455 98.0065C235.124 98.4211 234.522 98.6284 233.516 98.6284H226.03ZM216.464 97.9296H220.813C225.044 97.9296 229.274 97.9296 233.502 97.9296C234.258 97.9296 234.699 97.8155 234.902 97.5709C235.105 97.3263 235.105 96.9047 234.956 96.2432C234.529 94.3564 234.043 92.3625 233.241 90.5736C231.864 87.5012 229.388 85.7495 226.271 85.6447C220.267 85.442 214.097 85.4118 207.415 85.5375C204.08 85.6028 201.472 87.238 200.069 90.145C199.136 92.0643 198.611 94.2213 198.142 96.122C197.964 96.8395 197.971 97.3077 198.163 97.5499C198.354 97.7922 198.846 97.9296 199.677 97.9296C203.537 97.9296 207.397 97.9296 211.258 97.9296H216.464Z" fill="#404040"/>
<path d="M225.253 72.0019C225.206 74.2054 224.674 76.2389 223.452 78.0721C220.113 83.0825 213.596 83.1617 210.322 78.1117C207.806 74.2287 207.886 70.0732 210.016 66.0574C211.552 63.1667 215.045 61.9671 218.86 62.6869C221.979 63.2762 224.254 65.6638 224.889 69.0762C225.071 70.0406 225.136 71.0282 225.253 72.0019Z" fill="#EE4037"/>
<path d="M216.821 82.2137H216.767C214.081 82.1974 211.633 80.7696 210.023 78.3005C207.541 74.471 207.431 70.1804 209.704 65.8944C211.276 62.9269 214.809 61.5665 218.921 62.3445C222.208 62.9641 224.567 65.4588 225.221 69.0134C225.347 69.6889 225.419 70.3784 225.487 71.0469C225.519 71.3521 225.55 71.6572 225.587 71.9623V72.0113C225.538 74.4175 224.929 76.4649 223.72 78.2655C222.071 80.7765 219.548 82.2137 216.821 82.2137ZM216.704 62.8267C213.832 62.8267 211.482 64.0426 210.327 66.2205C208.18 70.2689 208.28 74.315 210.616 77.9208C212.086 80.1896 214.331 81.4986 216.776 81.5149H216.821C219.31 81.5149 221.62 80.1919 223.16 77.8789C224.283 76.1971 224.852 74.28 224.903 72.0206C224.866 71.7201 224.836 71.4196 224.805 71.1191C224.738 70.4646 224.668 69.7891 224.546 69.1415C223.937 65.8805 221.788 63.5954 218.795 63.0293C218.106 62.8972 217.406 62.8294 216.704 62.8267Z" fill="#404040"/>
<path d="M243.249 136.872H196.028C190.538 136.872 186.088 141.315 186.088 146.795V146.797C186.088 152.278 190.538 156.72 196.028 156.72H243.249C248.739 156.72 253.189 152.278 253.189 146.797V146.795C253.189 141.315 248.739 136.872 243.249 136.872Z" fill="#FEE3E2"/>
<path d="M243.94 147.147H195.34C195.247 147.147 195.158 147.11 195.092 147.044C195.027 146.979 194.99 146.89 194.99 146.797C194.99 146.704 195.027 146.616 195.092 146.55C195.158 146.485 195.247 146.448 195.34 146.448H243.94C244.032 146.448 244.121 146.485 244.187 146.55C244.253 146.616 244.29 146.704 244.29 146.797C244.29 146.89 244.253 146.979 244.187 147.044C244.121 147.11 244.032 147.147 243.94 147.147Z" fill="#404040"/>
<path d="M243.249 192.28H196.028C190.538 192.28 186.088 196.722 186.088 202.203V202.205C186.088 207.685 190.538 212.128 196.028 212.128H243.249C248.739 212.128 253.189 207.685 253.189 202.205V202.203C253.189 196.722 248.739 192.28 243.249 192.28Z" fill="#FEE3E2"/>
<path d="M243.94 202.552H195.34C195.247 202.552 195.158 202.516 195.092 202.45C195.027 202.384 194.99 202.296 194.99 202.203C194.99 202.11 195.027 202.021 195.092 201.956C195.158 201.89 195.247 201.854 195.34 201.854H243.94C244.032 201.854 244.121 201.89 244.187 201.956C244.253 202.021 244.29 202.11 244.29 202.203C244.29 202.296 244.253 202.384 244.187 202.45C244.121 202.516 244.032 202.552 243.94 202.552Z" fill="#404040"/>
<path d="M243.179 164.577H195.958C190.468 164.577 186.018 169.019 186.018 174.5V174.502C186.018 179.982 190.468 184.425 195.958 184.425H243.179C248.668 184.425 253.119 179.982 253.119 174.502V174.5C253.119 169.019 248.668 164.577 243.179 164.577Z" fill="#EE4037"/>
<path d="M201.068 178.909C203.431 178.909 205.347 176.997 205.347 174.637C205.347 172.278 203.431 170.365 201.068 170.365C198.705 170.365 196.789 172.278 196.789 174.637C196.789 176.997 198.705 178.909 201.068 178.909Z" fill="white"/>
<path d="M213.493 178.909C215.857 178.909 217.773 176.997 217.773 174.637C217.773 172.278 215.857 170.365 213.493 170.365C211.13 170.365 209.214 172.278 209.214 174.637C209.214 176.997 211.13 178.909 213.493 178.909Z" fill="white"/>
<path d="M225.921 178.909C228.285 178.909 230.2 176.997 230.2 174.637C230.2 172.278 228.285 170.365 225.921 170.365C223.558 170.365 221.642 172.278 221.642 174.637C221.642 176.997 223.558 178.909 225.921 178.909Z" fill="white"/>
<path d="M238.346 178.909C240.71 178.909 242.626 176.997 242.626 174.637C242.626 172.278 240.71 170.365 238.346 170.365C235.983 170.365 234.067 172.278 234.067 174.637C234.067 176.997 235.983 178.909 238.346 178.909Z" fill="white"/>
<path d="M301.128 140.575H300.85C291.776 140.576 283.073 144.175 276.657 150.58C270.24 156.986 266.636 165.674 266.636 174.733V198.392H335.34V174.735C335.341 170.249 334.456 165.808 332.737 161.663C331.018 157.519 328.498 153.753 325.321 150.581C322.144 147.409 318.373 144.893 314.222 143.176C310.07 141.459 305.621 140.576 301.128 140.575ZM321.979 190.456H280.001V176C280.001 170.466 282.203 165.159 286.123 161.246C290.042 157.333 295.358 155.134 300.902 155.134H301.072C303.817 155.133 306.536 155.672 309.072 156.721C311.609 157.769 313.914 159.306 315.855 161.243C317.797 163.181 319.337 165.482 320.387 168.014C321.438 170.545 321.979 173.259 321.979 176V190.456Z" fill="#EE4037"/>
<path d="M266.636 197.157C266.543 197.157 266.454 197.121 266.389 197.055C266.323 196.99 266.286 196.901 266.286 196.808V174.735C266.283 168.729 267.851 162.826 270.836 157.611C273.82 152.396 278.117 148.049 283.301 145.001C283.341 144.978 283.385 144.963 283.43 144.956C283.476 144.95 283.522 144.953 283.567 144.964C283.611 144.976 283.653 144.996 283.69 145.024C283.727 145.052 283.757 145.086 283.781 145.126C283.804 145.165 283.819 145.209 283.826 145.255C283.832 145.3 283.829 145.347 283.818 145.391C283.806 145.435 283.786 145.477 283.758 145.514C283.73 145.55 283.696 145.581 283.656 145.605C278.589 148.605 274.39 152.866 271.468 157.973C268.546 163.079 267.002 168.855 266.986 174.735V196.808C266.986 196.901 266.949 196.99 266.884 197.055C266.818 197.121 266.729 197.157 266.636 197.157Z" fill="#404040"/>
<path d="M283.479 145.651C283.402 145.651 283.328 145.626 283.267 145.579C283.206 145.533 283.162 145.467 283.142 145.394C283.122 145.32 283.127 145.242 283.155 145.171C283.184 145.1 283.235 145.04 283.301 145.001C284.763 144.14 286.287 143.387 287.861 142.749C287.947 142.714 288.043 142.715 288.129 142.751C288.214 142.787 288.282 142.855 288.317 142.941C288.352 143.027 288.351 143.123 288.315 143.209C288.279 143.294 288.21 143.362 288.124 143.396C286.582 144.021 285.089 144.759 283.656 145.605C283.602 145.636 283.541 145.652 283.479 145.651Z" fill="#404040"/>
<path d="M337.847 185.923H264.13C257.361 185.923 251.873 191.401 251.873 198.159V254.175C251.873 260.932 257.361 266.411 264.13 266.411H337.847C344.616 266.411 350.104 260.932 350.104 254.175V198.159C350.104 191.401 344.616 185.923 337.847 185.923Z" fill="#EE4037"/>
<path d="M337.849 266.763H264.134C260.794 266.757 257.593 265.43 255.231 263.072C252.869 260.715 251.54 257.518 251.534 254.184V198.159C251.54 194.825 252.869 191.629 255.231 189.271C257.593 186.913 260.794 185.586 264.134 185.581H337.853C341.193 185.586 344.395 186.913 346.757 189.271C349.119 191.629 350.448 194.825 350.453 198.159V254.177C350.45 257.513 349.121 260.712 346.758 263.071C344.395 265.431 341.191 266.758 337.849 266.763ZM264.134 186.272C260.98 186.277 257.956 187.53 255.725 189.757C253.494 191.984 252.239 195.003 252.234 198.152V254.177C252.239 257.326 253.494 260.345 255.725 262.572C257.956 264.799 260.98 266.052 264.134 266.057H337.853C341.008 266.052 344.032 264.799 346.263 262.572C348.493 260.345 349.749 257.326 349.753 254.177V198.159C349.749 195.01 348.493 191.991 346.263 189.764C344.032 187.537 341.008 186.284 337.853 186.279L264.134 186.272Z" fill="#404040"/>
<path d="M296.729 231.836H305.246V245.156C305.246 246.283 304.798 247.364 303.999 248.162C303.2 248.959 302.117 249.407 300.988 249.407C299.859 249.407 298.775 248.959 297.977 248.162C297.178 247.364 296.729 246.283 296.729 245.156V231.836Z" fill="white"/>
<path d="M306.931 215.966H295.045C293.153 215.966 291.62 217.497 291.62 219.386V229.551C291.62 231.44 293.153 232.97 295.045 232.97H306.931C308.823 232.97 310.357 231.44 310.357 229.551V219.386C310.357 217.497 308.823 215.966 306.931 215.966Z" fill="white"/>
<path d="M140.953 160.878C140.556 160.339 140.269 159.727 140.109 159.077C139.949 158.427 139.918 157.752 140.019 157.09C140.121 156.428 140.351 155.793 140.699 155.22C141.046 154.648 141.502 154.149 142.043 153.752L146.581 150.419C147.672 149.618 149.038 149.283 150.377 149.487C151.716 149.691 152.919 150.418 153.721 151.507C154.118 152.046 154.405 152.658 154.565 153.308C154.726 153.958 154.756 154.633 154.655 155.295C154.554 155.957 154.323 156.592 153.976 157.165C153.629 157.737 153.172 158.236 152.632 158.632L148.093 161.966C147.002 162.767 145.636 163.102 144.297 162.898C142.958 162.694 141.755 161.967 140.953 160.878Z" fill="#EE4037"/>
<path d="M150.133 173.34C149.735 172.801 149.449 172.188 149.288 171.539C149.128 170.889 149.098 170.213 149.199 169.552C149.3 168.89 149.531 168.255 149.878 167.682C150.225 167.11 150.682 166.611 151.222 166.214L155.761 162.881C156.852 162.08 158.217 161.745 159.556 161.949C160.895 162.153 162.099 162.88 162.901 163.969C163.298 164.508 163.585 165.12 163.745 165.77C163.905 166.42 163.936 167.095 163.834 167.757C163.733 168.419 163.503 169.054 163.155 169.627C162.808 170.199 162.351 170.698 161.811 171.094L157.266 174.428C156.175 175.226 154.811 175.56 153.474 175.356C152.137 175.152 150.935 174.427 150.133 173.34Z" fill="#EE4037"/>
<path d="M165.099 175.259L128.898 126.11L141.667 116.737L177.865 165.886C179.107 167.577 179.627 169.691 179.311 171.764C178.994 173.838 177.866 175.701 176.175 176.945C174.481 178.185 172.364 178.704 170.288 178.388C168.211 178.072 166.345 176.947 165.099 175.259Z" fill="#EE4037"/>
<path d="M163.577 173.543C163.522 173.543 163.468 173.53 163.419 173.505C163.37 173.481 163.328 173.445 163.295 173.401L125.368 121.922C125.314 121.848 125.291 121.755 125.305 121.664C125.311 121.618 125.327 121.573 125.35 121.533C125.374 121.493 125.405 121.458 125.443 121.431L138.211 112.057C138.248 112.03 138.29 112.01 138.335 111.999C138.38 111.988 138.426 111.986 138.472 111.993C138.517 112 138.561 112.016 138.6 112.04C138.64 112.064 138.674 112.095 138.701 112.132L166.725 150.177C166.755 150.214 166.778 150.256 166.791 150.302C166.804 150.347 166.808 150.395 166.802 150.442C166.796 150.489 166.781 150.534 166.757 150.575C166.733 150.616 166.701 150.652 166.663 150.68C166.624 150.708 166.581 150.728 166.535 150.739C166.488 150.75 166.44 150.751 166.394 150.743C166.347 150.735 166.302 150.717 166.263 150.691C166.223 150.665 166.189 150.631 166.163 150.592L138.344 112.826L126.141 121.785L163.857 172.986C163.885 173.023 163.905 173.065 163.916 173.109C163.927 173.154 163.93 173.2 163.923 173.245C163.916 173.291 163.9 173.335 163.877 173.374C163.853 173.413 163.822 173.448 163.785 173.475C163.725 173.519 163.652 173.543 163.577 173.543Z" fill="#404040"/>
<path d="M119.782 131.29C118.156 131.29 116.532 131.166 114.924 130.92C107.655 129.814 100.995 126.226 96.0785 120.767C91.1623 115.308 88.2942 108.317 87.9629 100.984C87.6317 93.6508 89.8578 86.4299 94.2619 80.5517C98.666 74.6734 104.976 70.5014 112.116 68.7466C119.256 66.9918 126.785 67.7628 133.419 70.9281C140.053 74.0934 145.383 79.4572 148.5 86.1056C151.617 92.7541 152.328 100.276 150.513 107.389C148.697 114.502 144.467 120.767 138.543 125.115C133.113 129.126 126.537 131.291 119.782 131.29ZM119.649 68.5219C114.739 68.5322 109.901 69.7037 105.531 71.9403C101.162 74.1769 97.3851 77.4151 94.5108 81.3896C91.6366 85.3641 89.7464 89.9617 88.9952 94.806C88.244 99.6502 88.6531 104.603 90.189 109.259C91.7249 113.915 94.3438 118.142 97.8314 121.593C101.319 125.043 105.576 127.62 110.253 129.112C114.931 130.604 119.896 130.969 124.742 130.176C129.587 129.383 134.176 127.456 138.132 124.552C143.085 120.917 146.848 115.897 148.943 110.127C151.038 104.357 151.372 98.0966 149.902 92.1374C148.433 86.1781 145.226 80.7877 140.688 76.648C136.149 72.5082 130.482 69.8052 124.405 68.8806C122.831 68.641 121.241 68.5211 119.649 68.5219Z" fill="#404040"/>
<path d="M56.6686 112.243C53.8032 117.682 55.6979 124.5 61.0787 127.482C61.2249 127.564 61.3742 127.642 61.5267 127.715C63.8052 128.794 66.2965 129.351 68.8185 129.345C71.9616 129.285 79.8321 118.689 84.0229 101.265L66.9355 92.7749L56.6686 112.243Z" fill="white"/>
<path d="M68.5548 129.693C66.0674 129.661 63.6161 129.095 61.368 128.032C61.2117 127.953 61.06 127.871 60.9013 127.799C55.4249 124.771 53.3831 117.72 56.3512 112.094L66.6181 92.6189C66.6609 92.538 66.7337 92.4771 66.821 92.4492C66.9082 92.4214 67.0029 92.4288 67.0848 92.4698L84.1699 100.96C84.2412 100.995 84.2984 101.053 84.332 101.124C84.3655 101.196 84.3734 101.277 84.3542 101.354C82.4875 109.113 79.6361 116.446 76.3203 122.003C73.5203 126.718 70.6339 129.667 68.8162 129.69L68.5548 129.693ZM67.0871 93.2362L56.9789 112.407C54.1788 117.701 56.1039 124.326 61.249 127.177C61.3937 127.256 61.5383 127.333 61.6877 127.41C63.9177 128.454 66.3509 128.994 68.8138 128.991C71.6956 128.929 79.4774 118.447 83.6192 101.442L67.0871 93.2362Z" fill="#404040"/>
<path d="M108.351 254.193V266.413H143.24L143.802 265.209C144.003 264.78 144.111 264.314 144.121 263.841C144.131 263.368 144.043 262.898 143.861 262.462C143.679 262.025 143.408 261.63 143.066 261.304C142.723 260.977 142.316 260.725 141.87 260.564L123.348 253.888L108.351 254.193Z" fill="white"/>
<path d="M143.24 266.763H108.351C108.258 266.763 108.169 266.726 108.103 266.66C108.038 266.595 108.001 266.506 108.001 266.413V254.193C108.001 254.102 108.037 254.014 108.101 253.949C108.165 253.883 108.252 253.846 108.344 253.844L123.341 253.539C123.383 253.537 123.426 253.543 123.467 253.558L141.989 260.236C142.481 260.413 142.931 260.69 143.309 261.051C143.688 261.411 143.987 261.846 144.187 262.329C144.388 262.811 144.485 263.33 144.474 263.852C144.462 264.374 144.341 264.887 144.119 265.36L143.557 266.565C143.528 266.624 143.483 266.674 143.427 266.709C143.371 266.744 143.306 266.763 143.24 266.763ZM108.706 266.064H143.02L143.487 265.06C143.667 264.675 143.765 264.257 143.774 263.833C143.783 263.408 143.704 262.987 143.54 262.595C143.377 262.203 143.134 261.849 142.827 261.556C142.519 261.263 142.153 261.037 141.753 260.893L123.289 254.247L108.701 254.545L108.706 266.064Z" fill="#404040"/>
<path d="M57.8633 254.193V266.413H92.7451L93.3074 265.209C93.5077 264.78 93.6164 264.314 93.6265 263.841C93.6367 263.368 93.548 262.898 93.3663 262.462C93.1846 262.025 92.9137 261.63 92.5709 261.304C92.2281 260.977 91.821 260.725 91.3754 260.564L72.853 253.888L57.8633 254.193Z" fill="white"/>
<path d="M92.7455 266.763H57.8637C57.7709 266.763 57.6818 266.726 57.6162 266.66C57.5505 266.595 57.5137 266.506 57.5137 266.413V254.193C57.5137 254.102 57.5496 254.014 57.6137 253.949C57.6778 253.884 57.7651 253.846 57.8567 253.844L72.8534 253.539C72.8962 253.537 72.939 253.543 72.9794 253.558L91.5018 260.236C91.9938 260.413 92.4434 260.691 92.8219 261.051C93.2003 261.411 93.4994 261.846 93.6998 262.329C93.9003 262.811 93.9979 263.33 93.9862 263.852C93.9746 264.374 93.854 264.887 93.6322 265.36L93.0698 266.565C93.0404 266.625 92.9942 266.676 92.9367 266.711C92.8792 266.746 92.8129 266.764 92.7455 266.763ZM58.2114 266.064H92.5215L92.9882 265.06C93.1681 264.675 93.2657 264.257 93.2749 263.833C93.2841 263.408 93.2046 262.987 93.0415 262.595C92.8784 262.203 92.6352 261.849 92.3276 261.556C92.0199 261.263 91.6544 261.037 91.2544 260.893L72.7974 254.247L58.209 254.545L58.2114 266.064Z" fill="#404040"/>
<path d="M132.299 127.694C140.791 131.432 144.903 133.696 144.635 134.487C144.445 135.041 142.095 134.867 137.584 133.965L144.061 139.986C144.161 140.074 144.232 140.191 144.265 140.319C144.299 140.448 144.292 140.584 144.247 140.71C144.202 140.835 144.121 140.944 144.013 141.023C143.906 141.101 143.777 141.146 143.644 141.151C141.326 141.274 139.005 140.962 136.802 140.231C131.41 138.43 128.432 134.64 127.401 133.194L132.299 127.694Z" fill="white"/>
<path d="M142.649 141.507C140.622 141.51 138.608 141.184 136.685 140.543C131.563 138.833 128.488 135.318 127.118 133.376C127.072 133.311 127.05 133.234 127.054 133.155C127.058 133.076 127.089 133.001 127.141 132.942L132.042 127.452C132.091 127.397 132.156 127.358 132.229 127.342C132.301 127.326 132.377 127.334 132.445 127.364C136.68 129.227 139.868 130.751 141.923 131.88C144.695 133.408 145.146 134.068 144.971 134.589C144.796 135.111 144.138 135.544 138.722 134.531L144.303 139.721C144.45 139.857 144.553 140.033 144.599 140.226C144.646 140.42 144.635 140.624 144.567 140.811C144.5 140.999 144.378 141.162 144.218 141.282C144.058 141.401 143.866 141.47 143.666 141.482C143.321 141.507 142.985 141.507 142.649 141.507ZM127.844 133.199C129.244 135.106 132.168 138.298 136.907 139.882C139.068 140.601 141.347 140.907 143.622 140.783C143.684 140.781 143.744 140.759 143.793 140.722C143.843 140.685 143.88 140.634 143.9 140.576C143.923 140.517 143.927 140.452 143.913 140.391C143.898 140.329 143.865 140.273 143.818 140.231L137.341 134.212C137.285 134.16 137.247 134.091 137.234 134.016C137.221 133.941 137.232 133.864 137.267 133.796C137.302 133.728 137.358 133.674 137.427 133.641C137.496 133.608 137.574 133.598 137.649 133.613C142.864 134.657 144.019 134.482 144.273 134.356C144.082 133.937 142.432 132.542 132.387 128.107L127.844 133.199Z" fill="#404040"/>
<path d="M77.3095 131.23L52.3633 254.477H80.5086L90.2645 185.99L90.9038 133.946L77.3095 131.23Z" fill="#EE4037"/>
<path d="M80.1895 131.23L103.059 254.957H133.125L108.953 131.23H80.1895Z" fill="#EE4037"/>
<path d="M95.3116 212.412C95.2304 212.412 95.1519 212.383 95.0894 212.331C95.0269 212.279 94.9842 212.208 94.9686 212.128L86.6991 168.36L83.3344 167.621C83.2437 167.601 83.1648 167.546 83.1149 167.468C83.065 167.39 83.0483 167.295 83.0684 167.205C83.0885 167.114 83.1438 167.035 83.2221 166.985C83.3004 166.936 83.3954 166.919 83.486 166.939L87.0748 167.729C87.1416 167.743 87.2028 167.777 87.2505 167.826C87.2982 167.875 87.3304 167.936 87.3431 168.003L95.664 212C95.6724 212.045 95.6719 212.091 95.6624 212.136C95.6529 212.181 95.6346 212.224 95.6086 212.262C95.5826 212.3 95.5494 212.332 95.5108 212.357C95.4723 212.382 95.4292 212.399 95.384 212.408C95.3602 212.412 95.3359 212.414 95.3116 212.412Z" fill="#404040"/>
<path d="M111.424 126.874C112.124 129.243 112.894 131.703 113.785 134.244C114.935 137.526 116.149 140.596 117.378 143.452C102.071 140.774 86.4128 140.774 71.105 143.452C69.4291 130.836 69.2967 118.064 70.7106 105.416L75.9117 81.8901C76.2711 82.2768 79.1622 85.3073 83.5629 84.9439C85.8387 84.7289 87.9592 83.6978 89.5317 82.0415C93.4262 81.7108 99.0846 81.8831 103.744 85.263C109.898 89.7377 110.101 96.7536 113.489 104.471C116.17 110.576 121.574 118.784 133.761 126.506L126.014 136.173C122.797 134.964 111.72 130.35 105.221 118.323C102.243 112.753 100.69 106.534 100.702 100.22L111.424 126.874Z" fill="white"/>
<path d="M117.379 143.799C117.359 143.801 117.34 143.801 117.32 143.799C102.051 141.13 86.4332 141.13 71.1638 143.799C71.1174 143.807 71.0699 143.806 71.0241 143.795C70.9783 143.784 70.9352 143.764 70.8973 143.736C70.8594 143.708 70.8275 143.673 70.8035 143.633C70.7795 143.592 70.764 143.548 70.7578 143.501C69.0787 130.858 68.9463 118.058 70.3634 105.384C70.3621 105.371 70.3621 105.359 70.3634 105.347L75.5669 81.8202C75.5805 81.7581 75.611 81.7009 75.6551 81.6548C75.6991 81.6088 75.755 81.5758 75.8165 81.5593C75.8785 81.5424 75.9439 81.5427 76.0056 81.5604C76.0673 81.5781 76.123 81.6124 76.1665 81.6595C76.6752 82.2092 79.4169 84.9462 83.5307 84.6038C85.7195 84.3926 87.7585 83.4001 89.2732 81.8086C89.334 81.7438 89.4177 81.7054 89.5065 81.7014C95.396 81.2006 100.259 82.307 103.955 84.9881C108.335 88.1653 109.739 92.5258 111.366 97.5665C112.063 99.8595 112.881 102.114 113.816 104.322C117.493 112.707 124.269 120.068 133.953 126.203C133.995 126.23 134.03 126.264 134.058 126.305C134.085 126.346 134.104 126.393 134.112 126.441C134.12 126.49 134.118 126.54 134.105 126.588C134.093 126.635 134.07 126.68 134.039 126.718L126.292 136.383C126.247 136.44 126.184 136.482 126.113 136.502C126.042 136.522 125.967 136.518 125.898 136.492C120.766 134.565 116.072 131.635 112.089 127.874C112.717 129.97 113.398 132.066 114.119 134.121C115.204 137.209 116.41 140.301 117.706 143.305C117.728 143.359 117.737 143.416 117.732 143.474C117.727 143.532 117.708 143.587 117.676 143.635C117.644 143.684 117.6 143.723 117.549 143.751C117.498 143.778 117.441 143.792 117.383 143.792L117.379 143.799ZM71.0564 105.475C69.6599 117.966 69.7743 130.58 71.3971 143.044C86.4186 140.46 101.771 140.444 116.798 142.998C115.591 140.163 114.464 137.261 113.447 134.358C112.595 131.929 111.8 129.443 111.081 126.972C111.072 126.942 111.067 126.91 111.067 126.879C108.634 124.383 106.56 121.56 104.907 118.493C101.902 112.872 100.335 106.596 100.345 100.224C100.345 100.132 100.382 100.043 100.448 99.9772C100.513 99.9117 100.602 99.8749 100.695 99.8749C100.788 99.8749 100.877 99.9117 100.943 99.9772C101.008 100.043 101.045 100.132 101.045 100.224C101.034 106.48 102.572 112.641 105.523 118.16C111.303 128.861 120.667 133.767 125.893 135.758L133.246 126.599C123.616 120.431 116.863 113.036 113.179 104.62C112.235 102.388 111.408 100.108 110.703 97.7901C109.116 92.8589 107.744 88.5986 103.549 85.5565C100.018 82.9942 95.361 81.9297 89.7002 82.3886C88.0775 84.0499 85.9169 85.0825 83.603 85.3026C79.8976 85.6054 77.2259 83.6068 76.1362 82.5936L71.0564 105.475Z" fill="#404040"/>
<path d="M87.8475 77.616C88.4215 77.5158 91.6346 76.8916 93.051 74.2571C94.7054 71.1777 93.331 66.4235 89.1309 63.7075L78.8267 66.4561L80.0517 84.788C81.7385 85.057 83.464 84.9498 85.1043 84.4741C86.7447 83.9985 88.2593 83.1662 89.5392 82.0371C89.3837 80.5603 89.2281 79.085 89.0726 77.6113L87.8475 77.616Z" fill="white"/>
<path d="M81.8783 85.2912C81.2454 85.29 80.6135 85.2401 79.9883 85.1421C79.9099 85.1291 79.8382 85.0901 79.7848 85.0313C79.7314 84.9725 79.6995 84.8975 79.6943 84.8183L78.4716 66.4888C78.4658 66.4082 78.4886 66.3281 78.5359 66.2625C78.5832 66.1969 78.6521 66.1501 78.7306 66.1301L89.0325 63.3791C89.0797 63.3664 89.129 63.3638 89.1772 63.3715C89.2255 63.3791 89.2716 63.3968 89.3125 63.4234C93.3936 66.0485 95.209 70.9821 93.3586 74.4225C92.4252 76.1788 90.7149 77.0942 89.4175 77.5554C89.4175 77.5554 89.4175 77.5718 89.4175 77.5811L89.8842 82.0068C89.8897 82.0622 89.8821 82.1181 89.8618 82.1699C89.8415 82.2217 89.8092 82.268 89.7675 82.305C88.2783 83.6078 86.4916 84.526 84.5641 84.979C83.6838 85.1855 82.7826 85.2902 81.8783 85.2912ZM80.3756 84.4922C81.7185 84.6722 83.083 84.6083 84.4031 84.3035C86.1579 83.8906 87.7893 83.0675 89.1632 81.902L88.7362 77.7721C88.3885 77.8676 88.1015 77.9258 87.9101 77.9608C87.8173 77.9771 87.7218 77.956 87.6445 77.9021C87.5673 77.8481 87.5147 77.7657 87.4983 77.6731C87.4819 77.5804 87.503 77.485 87.5571 77.4079C87.6111 77.3308 87.6936 77.2783 87.7865 77.262C88.6288 77.1129 91.4732 76.4397 92.7426 74.0801C94.1939 71.3804 93.1906 66.8172 89.0628 64.0826L79.1879 66.7357L80.3756 84.4922Z" fill="#404040"/>
<path d="M79.8903 59.8989C83.2551 59.1605 88.3279 60.1319 89.3779 63.2578C90.2459 65.8434 88.2742 69.6239 84.1744 71.8135C85.0674 79.684 84.5498 87.6503 82.6461 95.3398C80.8937 102.349 76.5793 119.607 64.896 122.826C61.2139 123.844 55.1914 123.911 51.7357 120.382C50.828 119.451 49.372 117.534 48.9823 113.66C47.8949 102.854 57.1491 97.0495 66.7324 79.4444C73.1002 67.7604 74.0009 61.1871 79.8903 59.8989Z" fill="#4F4F4F"/>
<path d="M86.5823 73.0668C86.2953 74.1499 84.949 74.7346 83.5793 74.3736C82.2096 74.0125 81.3299 72.8409 81.6145 71.7577C81.8992 70.6746 83.2479 70.0899 84.6176 70.451C85.9873 70.812 86.8693 71.986 86.5823 73.0668Z" fill="white"/>
<path d="M125.765 37.6189C125.027 37.6189 124.305 37.4003 123.691 36.9908C123.077 36.5813 122.599 35.9992 122.316 35.3182C122.033 34.6372 121.959 33.8878 122.103 33.1649C122.248 32.4419 122.603 31.7779 123.125 31.2566C123.647 30.7354 124.313 30.3805 125.037 30.2367C125.761 30.0928 126.512 30.1667 127.194 30.4487C127.876 30.7308 128.459 31.2085 128.869 31.8214C129.28 32.4343 129.499 33.1549 129.499 33.892C129.499 34.8804 129.105 35.8284 128.405 36.5273C127.705 37.2263 126.755 37.6189 125.765 37.6189ZM125.765 30.8638C125.165 30.8638 124.579 31.0414 124.08 31.3742C123.581 31.7069 123.192 32.1798 122.963 32.7332C122.733 33.2865 122.673 33.8953 122.79 34.4827C122.907 35.0701 123.196 35.6097 123.62 36.0332C124.044 36.4567 124.585 36.7451 125.173 36.8619C125.762 36.9788 126.372 36.9188 126.926 36.6896C127.48 36.4604 127.954 36.0723 128.287 35.5743C128.621 35.0763 128.799 34.4909 128.799 33.892C128.799 33.0889 128.479 32.3186 127.91 31.7508C127.341 31.1829 126.57 30.8638 125.765 30.8638Z" fill="#404040"/>
<path d="M31.7295 202.07C30.9911 202.07 30.2693 201.851 29.6553 201.442C29.0414 201.032 28.5629 200.45 28.2803 199.769C27.9977 199.088 27.9238 198.339 28.0678 197.616C28.2119 196.893 28.5675 196.229 29.0896 195.708C29.6117 195.187 30.2769 194.832 31.0012 194.688C31.7254 194.544 32.476 194.618 33.1582 194.9C33.8404 195.182 34.4235 195.66 34.8337 196.273C35.244 196.885 35.4629 197.606 35.4629 198.343C35.4629 199.332 35.0696 200.28 34.3694 200.978C33.6693 201.677 32.7197 202.07 31.7295 202.07ZM31.7295 195.315C31.1296 195.315 30.5431 195.493 30.0442 195.825C29.5454 196.158 29.1566 196.631 28.927 197.184C28.6974 197.738 28.6374 198.346 28.7544 198.934C28.8714 199.521 29.1603 200.061 29.5846 200.484C30.0088 200.908 30.5493 201.196 31.1377 201.313C31.7261 201.43 32.3361 201.37 32.8904 201.141C33.4446 200.912 33.9184 200.523 34.2517 200.025C34.585 199.528 34.7629 198.942 34.7629 198.343C34.7629 197.54 34.4433 196.77 33.8745 196.202C33.3056 195.634 32.534 195.315 31.7295 195.315Z" fill="#404040"/>
</svg>
